<svg xmlns="http://www.w3.org/2000/svg" xmlns:xlink="http://www.w3.org/1999/xlink" contentStyleType="text/css" data-diagram-type="CLASS" height="1005px" preserveAspectRatio="none" style="width:1690px;height:1005px;background:#FFFFFF;" version="1.1" viewBox="0 0 1690 1005" width="1690px" zoomAndPan="magnify"><defs/><g><!--cluster Client--><g class="cluster" data-entity="Client" data-source-line="1" data-uid="ent0002" id="cluster_Client"><path d="M8.5,6 L51.6504,6 A3.75,3.75 0 0 1 54.1504,8.5 L61.1504,28.4883 L1680.5,28.4883 A2.5,2.5 0 0 1 1683,30.9883 L1683,995.54 A2.5,2.5 0 0 1 1680.5,998.04 L8.5,998.04 A2.5,2.5 0 0 1 6,995.54 L6,8.5 A2.5,2.5 0 0 1 8.5,6" fill="none" style="stroke:#000000;stroke-width:1.5;"/><line style="stroke:#000000;stroke-width:1.5;" x1="6" x2="61.1504" y1="28.4883" y2="28.4883"/><text fill="#000000" font-family="sans-serif" font-size="14" font-weight="bold" lengthAdjust="spacing" textLength="42.1504" x="10" y="21.5352">Client</text></g><!--class CanastaConsole--><g class="entity" data-entity="CanastaConsole" data-source-line="3" data-uid="ent0003" id="entity_CanastaConsole"><rect fill="#FCD299" height="80.9766" rx="2.5" ry="2.5" style="stroke:#181818;stroke-width:0.5;" width="200.2754" x="718.86" y="810.38"/><ellipse cx="760.7589" cy="826.38" fill="#ADD1B2" rx="11" ry="11" style="stroke:#181818;stroke-width:1;"/><path d="M763.2321,832.5231 Q762.651,832.8219 762.0119,832.9713 Q761.3727,833.1207 760.6671,833.1207 Q758.1603,833.1207 756.8405,831.4689 Q755.5206,829.817 755.5206,826.6959 Q755.5206,823.5665 756.8405,821.9147 Q758.1603,820.2628 760.6671,820.2628 Q761.3727,820.2628 762.0202,820.4122 Q762.6676,820.5616 763.2321,820.8605 L763.2321,823.5831 Q762.6012,823.0021 762.0077,822.7323 Q761.4142,822.4625 760.7833,822.4625 Q759.4386,822.4625 758.7538,823.5292 Q758.069,824.5958 758.069,826.6959 Q758.069,828.7877 758.7538,829.8544 Q759.4386,830.921 760.7833,830.921 Q761.4142,830.921 762.0077,830.6512 Q762.6012,830.3815 763.2321,829.8004 Z " fill="#000000"/><text fill="#000000" font-family="sans-serif" font-size="14" lengthAdjust="spacing" textLength="108.5" x="780.7365" y="831.671">CanastaConsole</text><line style="stroke:#181818;stroke-width:0.5;" x1="719.86" x2="918.1354" y1="842.38" y2="842.38"/><line style="stroke:#181818;stroke-width:0.5;" x1="719.86" x2="918.1354" y1="850.38" y2="850.38"/><ellipse cx="729.86" cy="864.1241" fill="#84BE84" rx="3" ry="3" style="stroke:#038048;stroke-width:1;"/><text fill="#000000" font-family="sans-serif" font-size="14" lengthAdjust="spacing" textLength="174.2754" x="738.86" y="867.9152">print(msg, color, newline)</text><ellipse cx="729.86" cy="880.6124" fill="#84BE84" rx="3" ry="3" style="stroke:#038048;stroke-width:1;"/><text fill="#000000" font-family="sans-serif" font-size="14" lengthAdjust="spacing" textLength="41.583" x="738.86" y="884.4034">clear()</text></g><!--class InputGuard--><g class="entity" data-entity="InputGuard" data-source-line="8" data-uid="ent0004" id="entity_InputGuard"><rect fill="#FCD299" height="80.9766" rx="2.5" ry="2.5" style="stroke:#181818;stroke-width:0.5;" width="120.4932" x="953.75" y="810.38"/><ellipse cx="974.1311" cy="826.38" fill="#ADD1B2" rx="11" ry="11" style="stroke:#181818;stroke-width:1;"/><path d="M976.6042,832.5231 Q976.0232,832.8219 975.384,832.9713 Q974.7449,833.1207 974.0393,833.1207 Q971.5325,833.1207 970.2126,831.4689 Q968.8928,829.817 968.8928,826.6959 Q968.8928,823.5665 970.2126,821.9147 Q971.5325,820.2628 974.0393,820.2628 Q974.7449,820.2628 975.3923,820.4122 Q976.0398,820.5616 976.6042,820.8605 L976.6042,823.5831 Q975.9734,823.0021 975.3799,822.7323 Q974.7864,822.4625 974.1555,822.4625 Q972.8108,822.4625 972.126,823.5292 Q971.4412,824.5958 971.4412,826.6959 Q971.4412,828.7877 972.126,829.8544 Q972.8108,830.921 974.1555,830.921 Q974.7864,830.921 975.3799,830.6512 Q975.9734,830.3815 976.6042,829.8004 Z " fill="#000000"/><text fill="#000000" font-family="sans-serif" font-size="14" lengthAdjust="spacing" textLength="76.5352" x="989.3269" y="831.671">InputGuard</text><line style="stroke:#181818;stroke-width:0.5;" x1="954.75" x2="1073.2432" y1="842.38" y2="842.38"/><line style="stroke:#181818;stroke-width:0.5;" x1="954.75" x2="1073.2432" y1="850.38" y2="850.38"/><ellipse cx="964.75" cy="864.1241" fill="#84BE84" rx="3" ry="3" style="stroke:#038048;stroke-width:1;"/><text fill="#000000" font-family="sans-serif" font-size="14" lengthAdjust="spacing" textLength="85.6406" x="973.75" y="867.9152">InputGuard()</text><ellipse cx="964.75" cy="880.6124" fill="#84BE84" rx="3" ry="3" style="stroke:#038048;stroke-width:1;"/><text fill="#000000" font-family="sans-serif" font-size="14" lengthAdjust="spacing" textLength="94.4932" x="973.75" y="884.4034">~InputGuard()</text></g><!--class ClientNetwork--><g class="entity" data-entity="ClientNetwork" data-source-line="13" data-uid="ent0005" id="entity_ClientNetwork"><rect fill="#CBE3D1" height="361.2773" rx="2.5" ry="2.5" style="stroke:#181818;stroke-width:0.5;" width="388.6191" x="22.69" y="281.42"/><ellipse cx="164.6588" cy="297.42" fill="#ADD1B2" rx="11" ry="11" style="stroke:#181818;stroke-width:1;"/><path d="M167.1319,303.5631 Q166.5508,303.8619 165.9117,304.0113 Q165.2725,304.1607 164.567,304.1607 Q162.0601,304.1607 160.7403,302.5089 Q159.4205,300.857 159.4205,297.7359 Q159.4205,294.6065 160.7403,292.9547 Q162.0601,291.3028 164.567,291.3028 Q165.2725,291.3028 165.92,291.4522 Q166.5674,291.6016 167.1319,291.9005 L167.1319,294.6231 Q166.501,294.0421 165.9075,293.7723 Q165.314,293.5025 164.6832,293.5025 Q163.3384,293.5025 162.6536,294.5692 Q161.9688,295.6358 161.9688,297.7359 Q161.9688,299.8277 162.6536,300.8944 Q163.3384,301.961 164.6832,301.961 Q165.314,301.961 165.9075,301.6912 Q166.501,301.4215 167.1319,300.8404 Z " fill="#000000"/><text fill="#000000" font-family="sans-serif" font-size="14" lengthAdjust="spacing" textLength="96.1816" x="185.1588" y="302.711">ClientNetwork</text><line style="stroke:#181818;stroke-width:0.5;" x1="23.69" x2="410.3091" y1="313.42" y2="313.42"/><rect fill="none" height="6" style="stroke:#C82930;stroke-width:1;" width="6" x="30.69" y="324.1641"/><text fill="#000000" font-family="sans-serif" font-size="14" lengthAdjust="spacing" textLength="156.0645" x="42.69" y="330.9552">ioContext: io_context&amp;</text><rect fill="none" height="6" style="stroke:#C82930;stroke-width:1;" width="6" x="30.69" y="340.6524"/><text fill="#000000" font-family="sans-serif" font-size="14" lengthAdjust="spacing" textLength="148.9072" x="42.69" y="347.4434">socket: ip::tcp::socket</text><rect fill="none" height="6" style="stroke:#C82930;stroke-width:1;" width="6" x="30.69" y="357.1407"/><text fill="#000000" font-family="sans-serif" font-size="14" lengthAdjust="spacing" textLength="168.8271" x="42.69" y="363.9317">resolver: ip::tcp::resolver</text><rect fill="none" height="6" style="stroke:#C82930;stroke-width:1;" width="6" x="30.69" y="373.629"/><text fill="#000000" font-family="sans-serif" font-size="14" lengthAdjust="spacing" textLength="164.7188" x="42.69" y="380.42">clientPlayerName: string</text><line style="stroke:#181818;stroke-width:1;" x1="23.69" x2="410.3091" y1="387.3731" y2="387.3731"/><ellipse cx="33.69" cy="401.1173" fill="#84BE84" rx="3" ry="3" style="stroke:#038048;stroke-width:1;"/><text fill="#000000" font-family="sans-serif" font-size="14" lengthAdjust="spacing" textLength="261.3516" x="42.69" y="404.9083">ClientNetwork(ioContext: io_context&amp;)</text><ellipse cx="33.69" cy="417.6055" fill="#84BE84" rx="3" ry="3" style="stroke:#038048;stroke-width:1;"/><text fill="#000000" font-family="sans-serif" font-size="14" lengthAdjust="spacing" textLength="218.5928" x="42.69" y="421.3966">connect(host, port, playerName)</text><ellipse cx="33.69" cy="434.0938" fill="#84BE84" rx="3" ry="3" style="stroke:#038048;stroke-width:1;"/><text fill="#000000" font-family="sans-serif" font-size="14" lengthAdjust="spacing" textLength="82.4551" x="42.69" y="437.8848">disconnect()</text><text fill="#000000" font-family="sans-serif" font-size="14" lengthAdjust="spacing" textLength="4.4297" x="42.69" y="454.3731">&#160;</text><ellipse cx="33.69" cy="467.0704" fill="#84BE84" rx="3" ry="3" style="stroke:#038048;stroke-width:1;"/><text fill="#000000" font-family="sans-serif" font-size="14" lengthAdjust="spacing" textLength="109.915" x="42.69" y="470.8614">sendDrawDeck()</text><ellipse cx="33.69" cy="483.5587" fill="#84BE84" rx="3" ry="3" style="stroke:#038048;stroke-width:1;"/><text fill="#000000" font-family="sans-serif" font-size="14" lengthAdjust="spacing" textLength="148.8525" x="42.69" y="487.3497">sendTakeDiscardPile()</text><ellipse cx="33.69" cy="500.047" fill="#84BE84" rx="3" ry="3" style="stroke:#038048;stroke-width:1;"/><text fill="#000000" font-family="sans-serif" font-size="14" lengthAdjust="spacing" textLength="292.5371" x="42.69" y="503.838">sendMeld(requests: vector&lt;MeldRequest&gt;)</text><ellipse cx="33.69" cy="516.5352" fill="#84BE84" rx="3" ry="3" style="stroke:#038048;stroke-width:1;"/><text fill="#000000" font-family="sans-serif" font-size="14" lengthAdjust="spacing" textLength="162.9141" x="42.69" y="520.3263">sendDiscard(card: Card)</text><ellipse cx="33.69" cy="533.0235" fill="#84BE84" rx="3" ry="3" style="stroke:#038048;stroke-width:1;"/><text fill="#000000" font-family="sans-serif" font-size="14" lengthAdjust="spacing" textLength="84.2051" x="42.69" y="536.8145">sendRevert()</text><text fill="#000000" font-family="sans-serif" font-size="14" lengthAdjust="spacing" textLength="4.4297" x="42.69" y="553.3028">&#160;</text><ellipse cx="33.69" cy="566.0001" fill="#84BE84" rx="3" ry="3" style="stroke:#038048;stroke-width:1;"/><text fill="#000000" font-family="sans-serif" font-size="14" lengthAdjust="spacing" textLength="362.6191" x="42.69" y="569.7911">setOnGameStateUpdate(callback: GameStateCallback)</text><ellipse cx="33.69" cy="582.4884" fill="#84BE84" rx="3" ry="3" style="stroke:#038048;stroke-width:1;"/><text fill="#000000" font-family="sans-serif" font-size="14" lengthAdjust="spacing" textLength="280.1504" x="42.69" y="586.2794">setOnActionError(callback: ErrorCallback)</text><ellipse cx="33.69" cy="598.9766" fill="#84BE84" rx="3" ry="3" style="stroke:#038048;stroke-width:1;"/><text fill="#000000" font-family="sans-serif" font-size="14" lengthAdjust="spacing" textLength="290.7871" x="42.69" y="602.7677">setOnLoginSuccess(callback: VoidCallback)</text><ellipse cx="33.69" cy="615.4649" fill="#84BE84" rx="3" ry="3" style="stroke:#038048;stroke-width:1;"/><text fill="#000000" font-family="sans-serif" font-size="14" lengthAdjust="spacing" textLength="336.1572" x="42.69" y="619.2559">setOnLoginFailure(callback: LoginFailureCallback)</text><ellipse cx="33.69" cy="631.9532" fill="#84BE84" rx="3" ry="3" style="stroke:#038048;stroke-width:1;"/><text fill="#000000" font-family="sans-serif" font-size="14" lengthAdjust="spacing" textLength="275.6387" x="42.69" y="635.7442">setOnDisconnect(callback: VoidCallback)</text></g><!--class ClientController--><g class="entity" data-entity="ClientController" data-source-line="35" data-uid="ent0006" id="entity_ClientController"><rect fill="#F4D6E1" height="163.418" rx="2.5" ry="2.5" style="stroke:#181818;stroke-width:0.5;" width="371.2695" x="395.37" y="41"/><ellipse cx="522.9218" cy="57" fill="#ADD1B2" rx="11" ry="11" style="stroke:#181818;stroke-width:1;"/><path d="M525.3949,63.1431 Q524.8138,63.4419 524.1747,63.5913 Q523.5355,63.7407 522.83,63.7407 Q520.3231,63.7407 519.0033,62.0889 Q517.6835,60.437 517.6835,57.3159 Q517.6835,54.1865 519.0033,52.5347 Q520.3231,50.8828 522.83,50.8828 Q523.5355,50.8828 524.183,51.0322 Q524.8304,51.1816 525.3949,51.4805 L525.3949,54.2031 Q524.764,53.6221 524.1705,53.3523 Q523.577,53.0825 522.9462,53.0825 Q521.6014,53.0825 520.9166,54.1492 Q520.2318,55.2158 520.2318,57.3159 Q520.2318,59.4077 520.9166,60.4744 Q521.6014,61.541 522.9462,61.541 Q523.577,61.541 524.1705,61.2712 Q524.764,61.0015 525.3949,60.4204 Z " fill="#000000"/><text fill="#000000" font-family="sans-serif" font-size="14" lengthAdjust="spacing" textLength="107.666" x="543.4218" y="62.291">ClientController</text><line style="stroke:#181818;stroke-width:0.5;" x1="396.37" x2="765.6395" y1="73" y2="73"/><rect fill="none" height="6" style="stroke:#C82930;stroke-width:1;" width="6" x="403.37" y="83.7441"/><text fill="#000000" font-family="sans-serif" font-size="14" lengthAdjust="spacing" textLength="254.9941" x="415.37" y="90.5352">network: shared_ptr&lt;ClientNetwork&gt;</text><rect fill="none" height="6" style="stroke:#C82930;stroke-width:1;" width="6" x="403.37" y="100.2324"/><text fill="#000000" font-family="sans-serif" font-size="14" lengthAdjust="spacing" textLength="159.3252" x="415.37" y="107.0234">localPlayerName: string</text><rect fill="none" height="6" style="stroke:#C82930;stroke-width:1;" width="6" x="403.37" y="116.7207"/><text fill="#000000" font-family="sans-serif" font-size="14" lengthAdjust="spacing" textLength="109.2451" x="415.37" y="123.5117">view: GameView</text><rect fill="none" height="6" style="stroke:#C82930;stroke-width:1;" width="6" x="403.37" y="133.209"/><text fill="#000000" font-family="sans-serif" font-size="14" lengthAdjust="spacing" textLength="202.8359" x="415.37" y="140">currentBoardState: BoardState</text><line style="stroke:#181818;stroke-width:1;" x1="396.37" x2="765.6395" y1="146.9531" y2="146.9531"/><ellipse cx="406.37" cy="160.6973" fill="#84BE84" rx="3" ry="3" style="stroke:#038048;stroke-width:1;"/><text fill="#000000" font-family="sans-serif" font-size="14" lengthAdjust="spacing" textLength="322.2256" x="415.37" y="164.4883">ClientController(clientNetwork: ClientNetwork*)</text><ellipse cx="406.37" cy="177.1855" fill="#84BE84" rx="3" ry="3" style="stroke:#038048;stroke-width:1;"/><text fill="#000000" font-family="sans-serif" font-size="14" lengthAdjust="spacing" textLength="226.208" x="415.37" y="180.9766">connect(host: string, port: string)</text><ellipse cx="406.37" cy="193.6738" fill="#84BE84" rx="3" ry="3" style="stroke:#038048;stroke-width:1;"/><text fill="#000000" font-family="sans-serif" font-size="14" lengthAdjust="spacing" textLength="345.2695" x="415.37" y="197.4648">processPlayerTurn(optional&lt;std::string&gt; message)</text></g><!--class CardView--><g class="entity" data-entity="CardView" data-source-line="46" data-uid="ent0007" id="entity_CardView"><rect fill="#FCD299" height="80.9766" rx="2.5" ry="2.5" style="stroke:#181818;stroke-width:0.5;" width="141.1514" x="1109.42" y="810.38"/><ellipse cx="1144.8528" cy="826.38" fill="#ADD1B2" rx="11" ry="11" style="stroke:#181818;stroke-width:1;"/><path d="M1147.326,832.5231 Q1146.7449,832.8219 1146.1057,832.9713 Q1145.4666,833.1207 1144.761,833.1207 Q1142.2542,833.1207 1140.9344,831.4689 Q1139.6145,829.817 1139.6145,826.6959 Q1139.6145,823.5665 1140.9344,821.9147 Q1142.2542,820.2628 1144.761,820.2628 Q1145.4666,820.2628 1146.114,820.4122 Q1146.7615,820.5616 1147.326,820.8605 L1147.326,823.5831 Q1146.6951,823.0021 1146.1016,822.7323 Q1145.5081,822.4625 1144.8772,822.4625 Q1143.5325,822.4625 1142.8477,823.5292 Q1142.1629,824.5958 1142.1629,826.6959 Q1142.1629,828.7877 1142.8477,829.8544 Q1143.5325,830.921 1144.8772,830.921 Q1145.5081,830.921 1146.1016,830.6512 Q1146.6951,830.3815 1147.326,829.8004 Z " fill="#000000"/><text fill="#000000" font-family="sans-serif" font-size="14" lengthAdjust="spacing" textLength="63.7451" x="1163.3934" y="831.671">CardView</text><line style="stroke:#181818;stroke-width:0.5;" x1="1110.42" x2="1249.5714" y1="842.38" y2="842.38"/><line style="stroke:#181818;stroke-width:0.5;" x1="1110.42" x2="1249.5714" y1="850.38" y2="850.38"/><ellipse cx="1120.42" cy="864.1241" fill="#84BE84" rx="3" ry="3" style="stroke:#038048;stroke-width:1;"/><text fill="#000000" font-family="sans-serif" font-size="14" lengthAdjust="spacing" textLength="115.1514" x="1129.42" y="867.9152">getLabel(): string</text><ellipse cx="1120.42" cy="880.6124" fill="#84BE84" rx="3" ry="3" style="stroke:#038048;stroke-width:1;"/><text fill="#000000" font-family="sans-serif" font-size="14" lengthAdjust="spacing" textLength="113.0527" x="1129.42" y="884.4034">getColor(): Color</text></g><!--class MeldView--><g class="entity" data-entity="MeldView" data-source-line="51" data-uid="ent0008" id="entity_MeldView"><rect fill="#FCD299" height="97.4648" rx="2.5" ry="2.5" style="stroke:#181818;stroke-width:0.5;" width="200.8223" x="482.59" y="802.13"/><ellipse cx="546.4992" cy="818.13" fill="#ADD1B2" rx="11" ry="11" style="stroke:#181818;stroke-width:1;"/><path d="M548.9723,824.2731 Q548.3913,824.5719 547.7521,824.7213 Q547.1129,824.8707 546.4074,824.8707 Q543.9005,824.8707 542.5807,823.2189 Q541.2609,821.567 541.2609,818.4459 Q541.2609,815.3165 542.5807,813.6647 Q543.9005,812.0128 546.4074,812.0128 Q547.1129,812.0128 547.7604,812.1622 Q548.4079,812.3116 548.9723,812.6105 L548.9723,815.3331 Q548.3415,814.7521 547.748,814.4823 Q547.1545,814.2125 546.5236,814.2125 Q545.1789,814.2125 544.4941,815.2792 Q543.8092,816.3458 543.8092,818.4459 Q543.8092,820.5377 544.4941,821.6044 Q545.1789,822.671 546.5236,822.671 Q547.1545,822.671 547.748,822.4012 Q548.3415,822.1315 548.9723,821.5504 Z " fill="#000000"/><text fill="#000000" font-family="sans-serif" font-size="14" lengthAdjust="spacing" textLength="64.5039" x="566.9992" y="823.421">MeldView</text><line style="stroke:#181818;stroke-width:0.5;" x1="483.59" x2="682.4123" y1="834.13" y2="834.13"/><line style="stroke:#181818;stroke-width:0.5;" x1="483.59" x2="682.4123" y1="842.13" y2="842.13"/><ellipse cx="493.59" cy="855.8741" fill="#84BE84" rx="3" ry="3" style="stroke:#038048;stroke-width:1;"/><text fill="#000000" font-family="sans-serif" font-size="14" lengthAdjust="spacing" textLength="106.6406" x="502.59" y="859.6652">getRank(): Rank</text><ellipse cx="493.59" cy="872.3624" fill="#84BE84" rx="3" ry="3" style="stroke:#038048;stroke-width:1;"/><text fill="#000000" font-family="sans-serif" font-size="14" lengthAdjust="spacing" textLength="174.8223" x="502.59" y="876.1534">getCards(): vector&lt;Card&gt;</text><ellipse cx="493.59" cy="888.8507" fill="#84BE84" rx="3" ry="3" style="stroke:#038048;stroke-width:1;"/><text fill="#000000" font-family="sans-serif" font-size="14" lengthAdjust="spacing" textLength="125.7197" x="502.59" y="892.6417">isInitialized(): bool</text></g><!--class BoardState--><g class="entity" data-entity="BoardState" data-source-line="57" data-uid="ent0009" id="entity_BoardState"><rect fill="#FCD299" height="262.3477" rx="2.5" ry="2.5" style="stroke:#181818;stroke-width:0.5;" width="381.5645" x="1285.22" y="719.69"/><ellipse cx="1435.5183" cy="735.69" fill="#ADD1B2" rx="11" ry="11" style="stroke:#181818;stroke-width:1;"/><path d="M1437.9915,741.8331 Q1437.4104,742.1319 1436.7713,742.2813 Q1436.1321,742.4307 1435.4265,742.4307 Q1432.9197,742.4307 1431.5999,740.7789 Q1430.2801,739.127 1430.2801,736.0059 Q1430.2801,732.8765 1431.5999,731.2247 Q1432.9197,729.5728 1435.4265,729.5728 Q1436.1321,729.5728 1436.7796,729.7222 Q1437.427,729.8716 1437.9915,730.1705 L1437.9915,732.8931 Q1437.3606,732.3121 1436.7671,732.0423 Q1436.1736,731.7725 1435.5428,731.7725 Q1434.198,731.7725 1433.5132,732.8392 Q1432.8284,733.9058 1432.8284,736.0059 Q1432.8284,738.0977 1433.5132,739.1644 Q1434.198,740.231 1435.5428,740.231 Q1436.1736,740.231 1436.7671,739.9612 Q1437.3606,739.6915 1437.9915,739.1104 Z " fill="#000000"/><text fill="#000000" font-family="sans-serif" font-size="14" lengthAdjust="spacing" textLength="72.4678" x="1456.0183" y="740.981">BoardState</text><line style="stroke:#181818;stroke-width:0.5;" x1="1286.22" x2="1665.7845" y1="751.69" y2="751.69"/><line style="stroke:#181818;stroke-width:0.5;" x1="1286.22" x2="1665.7845" y1="759.69" y2="759.69"/><ellipse cx="1296.22" cy="773.4341" fill="#84BE84" rx="3" ry="3" style="stroke:#038048;stroke-width:1;"/><text fill="#000000" font-family="sans-serif" font-size="14" lengthAdjust="spacing" textLength="296.8984" x="1305.22" y="777.2252">get/set MyTeamMelds(): vector&lt;MeldView&gt;</text><ellipse cx="1296.22" cy="789.9224" fill="#84BE84" rx="3" ry="3" style="stroke:#038048;stroke-width:1;"/><text fill="#000000" font-family="sans-serif" font-size="14" lengthAdjust="spacing" textLength="345.0371" x="1305.22" y="793.7134">get/set OpponentTeamMelds(): vector&lt;MeldView&gt;</text><ellipse cx="1296.22" cy="806.4107" fill="#84BE84" rx="3" ry="3" style="stroke:#038048;stroke-width:1;"/><text fill="#000000" font-family="sans-serif" font-size="14" lengthAdjust="spacing" textLength="162.0869" x="1305.22" y="810.2017">get/set MyHand(): Hand</text><ellipse cx="1296.22" cy="822.899" fill="#84BE84" rx="3" ry="3" style="stroke:#038048;stroke-width:1;"/><text fill="#000000" font-family="sans-serif" font-size="14" lengthAdjust="spacing" textLength="212.0029" x="1305.22" y="826.69">get/set DeckState(): ClientDeck</text><ellipse cx="1296.22" cy="839.3873" fill="#84BE84" rx="3" ry="3" style="stroke:#038048;stroke-width:1;"/><text fill="#000000" font-family="sans-serif" font-size="14" lengthAdjust="spacing" textLength="238.7383" x="1305.22" y="843.1783">get/set MyPlayer(): PlayerPublicInfo</text><ellipse cx="1296.22" cy="855.8755" fill="#84BE84" rx="3" ry="3" style="stroke:#038048;stroke-width:1;"/><text fill="#000000" font-family="sans-serif" font-size="14" lengthAdjust="spacing" textLength="280.6836" x="1305.22" y="859.6666">get/set OppositePlayer(): PlayerPublicInfo</text><ellipse cx="1296.22" cy="872.3638" fill="#84BE84" rx="3" ry="3" style="stroke:#038048;stroke-width:1;"/><text fill="#000000" font-family="sans-serif" font-size="14" lengthAdjust="spacing" textLength="323.0322" x="1305.22" y="876.1548">get/set LeftPlayer(): optional&lt;PlayerPublicInfo&gt;</text><ellipse cx="1296.22" cy="888.8521" fill="#84BE84" rx="3" ry="3" style="stroke:#038048;stroke-width:1;"/><text fill="#000000" font-family="sans-serif" font-size="14" lengthAdjust="spacing" textLength="332.9375" x="1305.22" y="892.6431">get/set RightPlayer(): optional&lt;PlayerPublicInfo&gt;</text><ellipse cx="1296.22" cy="905.3404" fill="#84BE84" rx="3" ry="3" style="stroke:#038048;stroke-width:1;"/><text fill="#000000" font-family="sans-serif" font-size="14" lengthAdjust="spacing" textLength="217.7793" x="1305.22" y="909.1314">get/set MyTeamTotalScore(): int</text><ellipse cx="1296.22" cy="921.8287" fill="#84BE84" rx="3" ry="3" style="stroke:#038048;stroke-width:1;"/><text fill="#000000" font-family="sans-serif" font-size="14" lengthAdjust="spacing" textLength="265.918" x="1305.22" y="925.6197">get/set OpponentTeamTotalScore(): int</text><ellipse cx="1296.22" cy="938.317" fill="#84BE84" rx="3" ry="3" style="stroke:#038048;stroke-width:1;"/><text fill="#000000" font-family="sans-serif" font-size="14" lengthAdjust="spacing" textLength="232.7227" x="1305.22" y="942.108">get/set MyTeamMeldPoints(): bool</text><ellipse cx="1296.22" cy="954.8052" fill="#84BE84" rx="3" ry="3" style="stroke:#038048;stroke-width:1;"/><text fill="#000000" font-family="sans-serif" font-size="14" lengthAdjust="spacing" textLength="280.8613" x="1305.22" y="958.5962">get/set OpponentTeamMeldPoints(): bool</text><ellipse cx="1296.22" cy="971.2935" fill="#84BE84" rx="3" ry="3" style="stroke:#038048;stroke-width:1;"/><text fill="#000000" font-family="sans-serif" font-size="14" lengthAdjust="spacing" textLength="355.5645" x="1305.22" y="975.0845">getMeldIndexForRank(rank: Rank): optional&lt;size_t&gt;</text></g><!--class ScoreState--><g class="entity" data-entity="ScoreState" data-source-line="73" data-uid="ent0010" id="entity_ScoreState"><rect fill="#FCD299" height="163.418" rx="2.5" ry="2.5" style="stroke:#181818;stroke-width:0.5;" width="425.082" x="22.46" y="769.16"/><ellipse cx="195.5596" cy="785.16" fill="#ADD1B2" rx="11" ry="11" style="stroke:#181818;stroke-width:1;"/><path d="M198.0328,791.3031 Q197.4517,791.6019 196.8125,791.7513 Q196.1734,791.9007 195.4678,791.9007 Q192.961,791.9007 191.6412,790.2489 Q190.3213,788.597 190.3213,785.4759 Q190.3213,782.3465 191.6412,780.6947 Q192.961,779.0428 195.4678,779.0428 Q196.1734,779.0428 196.8208,779.1922 Q197.4683,779.3416 198.0328,779.6405 L198.0328,782.3631 Q197.4019,781.7821 196.8084,781.5123 Q196.2149,781.2425 195.584,781.2425 Q194.2393,781.2425 193.5545,782.3092 Q192.8697,783.3758 192.8697,785.4759 Q192.8697,787.5677 193.5545,788.6344 Q194.2393,789.701 195.584,789.701 Q196.2149,789.701 196.8084,789.4312 Q197.4019,789.1615 198.0328,788.5804 Z " fill="#000000"/><text fill="#000000" font-family="sans-serif" font-size="14" lengthAdjust="spacing" textLength="70.3828" x="216.0596" y="790.451">ScoreState</text><line style="stroke:#181818;stroke-width:0.5;" x1="23.46" x2="446.542" y1="801.16" y2="801.16"/><line style="stroke:#181818;stroke-width:0.5;" x1="23.46" x2="446.542" y1="809.16" y2="809.16"/><ellipse cx="33.46" cy="822.9041" fill="#84BE84" rx="3" ry="3" style="stroke:#038048;stroke-width:1;"/><text fill="#000000" font-family="sans-serif" font-size="14" lengthAdjust="spacing" textLength="350.9434" x="42.46" y="826.6952">get/set MyTeamScoreBreakdown(): ScoreBreakdown</text><ellipse cx="33.46" cy="839.3924" fill="#84BE84" rx="3" ry="3" style="stroke:#038048;stroke-width:1;"/><text fill="#000000" font-family="sans-serif" font-size="14" lengthAdjust="spacing" textLength="399.082" x="42.46" y="843.1834">get/set OpponentTeamScoreBreakdown(): ScoreBreakdown</text><ellipse cx="33.46" cy="855.8807" fill="#84BE84" rx="3" ry="3" style="stroke:#038048;stroke-width:1;"/><text fill="#000000" font-family="sans-serif" font-size="14" lengthAdjust="spacing" textLength="221.0811" x="42.46" y="859.6717">get/set getPlayersCount(): size_t</text><ellipse cx="33.46" cy="872.369" fill="#84BE84" rx="3" ry="3" style="stroke:#038048;stroke-width:1;"/><text fill="#000000" font-family="sans-serif" font-size="14" lengthAdjust="spacing" textLength="217.7793" x="42.46" y="876.16">get/set MyTeamTotalScore(): int</text><ellipse cx="33.46" cy="888.8573" fill="#84BE84" rx="3" ry="3" style="stroke:#038048;stroke-width:1;"/><text fill="#000000" font-family="sans-serif" font-size="14" lengthAdjust="spacing" textLength="265.918" x="42.46" y="892.6483">get/set OpponentTeamTotalScore(): int</text><ellipse cx="33.46" cy="905.3455" fill="#84BE84" rx="3" ry="3" style="stroke:#038048;stroke-width:1;"/><text fill="#000000" font-family="sans-serif" font-size="14" lengthAdjust="spacing" textLength="183.2715" x="42.46" y="909.1366">get/set IsGameOver(): bool</text><ellipse cx="33.46" cy="921.8338" fill="#84BE84" rx="3" ry="3" style="stroke:#038048;stroke-width:1;"/><text fill="#000000" font-family="sans-serif" font-size="14" lengthAdjust="spacing" textLength="389.5186" x="42.46" y="925.6248">get/set GameOutcome(): optional&lt;ClientGameOutcome&gt;</text></g><!--class GameView--><g class="entity" data-entity="GameView" data-source-line="87" data-uid="ent0014" id="entity_GameView"><rect fill="#FCD299" height="212.8828" rx="2.5" ry="2.5" style="stroke:#181818;stroke-width:0.5;" width="549.8516" x="563.07" y="355.61"/><ellipse cx="798.4929" cy="371.61" fill="#ADD1B2" rx="11" ry="11" style="stroke:#181818;stroke-width:1;"/><path d="M800.966,377.7531 Q800.3849,378.0519 799.7458,378.2013 Q799.1066,378.3507 798.4011,378.3507 Q795.8942,378.3507 794.5744,376.6989 Q793.2546,375.047 793.2546,371.9259 Q793.2546,368.7965 794.5744,367.1447 Q795.8942,365.4928 798.4011,365.4928 Q799.1066,365.4928 799.7541,365.6422 Q800.4015,365.7916 800.966,366.0905 L800.966,368.8131 Q800.3351,368.2321 799.7416,367.9623 Q799.1481,367.6925 798.5173,367.6925 Q797.1725,367.6925 796.4877,368.7592 Q795.8029,369.8258 795.8029,371.9259 Q795.8029,374.0177 796.4877,375.0844 Q797.1725,376.151 798.5173,376.151 Q799.1481,376.151 799.7416,375.8812 Q800.3351,375.6115 800.966,375.0304 Z " fill="#000000"/><text fill="#000000" font-family="sans-serif" font-size="14" lengthAdjust="spacing" textLength="70.5059" x="818.9929" y="376.901">GameView</text><line style="stroke:#181818;stroke-width:0.5;" x1="564.07" x2="1111.9216" y1="387.61" y2="387.61"/><rect fill="none" height="6" style="stroke:#C82930;stroke-width:1;" width="6" x="571.07" y="398.3541"/><text fill="#000000" font-family="sans-serif" font-size="14" lengthAdjust="spacing" textLength="169.4014" x="583.07" y="405.1452">console: CanastaConsole</text><rect fill="none" height="6" style="stroke:#C82930;stroke-width:1;" width="6" x="571.07" y="414.8424"/><text fill="#000000" font-family="sans-serif" font-size="14" lengthAdjust="spacing" textLength="168.6289" x="583.07" y="421.6334">screen: ScreenInteractive</text><rect fill="none" height="6" style="stroke:#C82930;stroke-width:1;" width="6" x="571.07" y="431.3307"/><text fill="#000000" font-family="sans-serif" font-size="14" lengthAdjust="spacing" textLength="239.9619" x="583.07" y="438.1217">inputGuard: optional&lt;InputGuard&gt;</text><line style="stroke:#181818;stroke-width:1;" x1="564.07" x2="1111.9216" y1="445.0748" y2="445.0748"/><ellipse cx="574.07" cy="458.819" fill="#84BE84" rx="3" ry="3" style="stroke:#038048;stroke-width:1;"/><text fill="#000000" font-family="sans-serif" font-size="14" lengthAdjust="spacing" textLength="411.2363" x="583.07" y="462.61">promptString(question: string&amp;, placeholder: string&amp;): string</text><ellipse cx="574.07" cy="475.3073" fill="#84BE84" rx="3" ry="3" style="stroke:#038048;stroke-width:1;"/><text fill="#000000" font-family="sans-serif" font-size="14" lengthAdjust="spacing" textLength="523.8516" x="583.07" y="479.0983">promptChoiceWithBoard(question, choices: vector&lt;string&gt;&amp;, boardState): int</text><ellipse cx="574.07" cy="491.7955" fill="#84BE84" rx="3" ry="3" style="stroke:#038048;stroke-width:1;"/><text fill="#000000" font-family="sans-serif" font-size="14" lengthAdjust="spacing" textLength="435.5039" x="583.07" y="495.5866">runMeldWizard(boardState: BoardState&amp;): vector&lt;MeldRequest&gt;</text><ellipse cx="574.07" cy="508.2838" fill="#84BE84" rx="3" ry="3" style="stroke:#038048;stroke-width:1;"/><text fill="#000000" font-family="sans-serif" font-size="14" lengthAdjust="spacing" textLength="334.7764" x="583.07" y="512.0748">runDiscardWizard(boardState: BoardState&amp;): Card</text><ellipse cx="574.07" cy="524.7721" fill="#84BE84" rx="3" ry="3" style="stroke:#038048;stroke-width:1;"/><text fill="#000000" font-family="sans-serif" font-size="14" lengthAdjust="spacing" textLength="486.5342" x="583.07" y="528.5631">showStaticBoardWithMessages(messages: vector&lt;string&gt;&amp;, boardState)</text><ellipse cx="574.07" cy="541.2604" fill="#84BE84" rx="3" ry="3" style="stroke:#038048;stroke-width:1;"/><text fill="#000000" font-family="sans-serif" font-size="14" lengthAdjust="spacing" textLength="277.1016" x="583.07" y="545.0514">showStaticScore(scoreState: ScoreState&amp;)</text><ellipse cx="574.07" cy="557.7487" fill="#84BE84" rx="3" ry="3" style="stroke:#038048;stroke-width:1;"/><text fill="#000000" font-family="sans-serif" font-size="14" lengthAdjust="spacing" textLength="92.5928" x="583.07" y="561.5397">restoreInput()</text></g><!--reverse link ClientController to ClientNetwork--><g class="link" data-entity-1="ClientController" data-entity-2="ClientNetwork" data-source-line="83" data-uid="lnk11" id="link_ClientController_ClientNetwork"><path codeLine="83" d="M407.3882,211.5944 C393.8782,220.8144 390.82,223.93 379,234.42 C363.17,248.46 348.02,264.32 333.78,280.97" fill="none" id="ClientController-backto-ClientNetwork" style="stroke:#181818;stroke-width:1;"/><polygon fill="none" points="417.3,204.83,410.0893,204.9083,407.3882,211.5944,414.5989,211.5161,417.3,204.83" style="stroke:#181818;stroke-width:1;"/><text fill="#000000" font-family="sans-serif" font-size="13" lengthAdjust="spacing" textLength="91.3809" x="380" y="247.9884">communicates</text></g><!--reverse link ClientController to BoardState--><g class="link" data-entity-1="ClientController" data-entity-2="BoardState" data-source-line="84" data-uid="lnk12" id="link_ClientController_BoardState"><path codeLine="84" d="M778.9597,144.5946 C893.1697,164.0446 1025.25,201.47 1130,281.42 C1277.75,394.18 1376.44,589.7 1429.39,719.44" fill="none" id="ClientController-backto-BoardState" style="stroke:#181818;stroke-width:1;"/><polygon fill="#181818" points="767.13,142.58,772.3733,147.5305,778.9597,144.5946,773.7164,139.6441,767.13,142.58" style="stroke:#181818;stroke-width:1;"/><text fill="#000000" font-family="sans-serif" font-size="13" lengthAdjust="spacing" textLength="45.1318" x="1395.93" y="467.1184">creates</text></g><!--reverse link ClientController to ScoreState--><g class="link" data-entity-1="ClientController" data-entity-2="ScoreState" data-source-line="85" data-uid="lnk13" id="link_ClientController_ScoreState"><path codeLine="85" d="M527.5958,215.4068 C514.9858,239.4468 507.99,255.63 499,281.42 C445.16,435.85 503.36,497.02 429,642.69 C405.03,689.65 367.2,733.55 331.3,768.74" fill="none" id="ClientController-backto-ScoreState" style="stroke:#181818;stroke-width:1;"/><polygon fill="#181818" points="533.17,204.78,526.8406,208.2353,527.5958,215.4068,533.9252,211.9515,533.17,204.78" style="stroke:#181818;stroke-width:1;"/><text fill="#000000" font-family="sans-serif" font-size="13" lengthAdjust="spacing" textLength="45.1318" x="500" y="467.1184">creates</text></g><!--reverse link ClientController to GameView--><g class="link" data-entity-1="ClientController" data-entity-2="GameView" data-source-line="101" data-uid="lnk15" id="link_ClientController_GameView"><path codeLine="101" d="M649.8321,214.0555 C684.2821,259.2755 720.37,306.65 757.49,355.37" fill="none" id="ClientController-backto-GameView" style="stroke:#181818;stroke-width:1;"/><polygon fill="#181818" points="642.56,204.51,643.0142,211.7068,649.8321,214.0555,649.3779,206.8587,642.56,204.51" style="stroke:#181818;stroke-width:1;"/><text fill="#000000" font-family="sans-serif" font-size="13" lengthAdjust="spacing" textLength="56.5386" x="672.46" y="247.9884">manages</text></g><!--link GameView to BoardState--><g class="link" data-entity-1="GameView" data-entity-2="BoardState" data-source-line="102" data-uid="lnk16" id="link_GameView_BoardState"><path codeLine="102" d="M972.38,568.94 C1030.39,610.9 1100.56,656.86 1169,689.69 C1210.45,709.58 1226.15,700.66 1268,719.69 C1273.62,722.25 1273.8983,722.2772 1279.5583,725.0672" fill="none" id="GameView-to-BoardState" style="stroke:#181818;stroke-width:1;stroke-dasharray:7.0,7.0;"/><polygon fill="#181818" points="1284.94,727.72,1278.636,720.153,1280.4553,725.5093,1275.0989,727.3286,1284.94,727.72" style="stroke:#181818;stroke-width:1;"/><text fill="#000000" font-family="sans-serif" font-size="13" lengthAdjust="spacing" textLength="51.105" x="1170" y="686.2584">displays</text></g><!--link GameView to ScoreState--><g class="link" data-entity-1="GameView" data-entity-2="ScoreState" data-source-line="103" data-uid="lnk17" id="link_GameView_ScoreState"><path codeLine="103" d="M676.79,568.83 C618.12,607.12 551.19,650.55 490,689.69 C449.48,715.61 410.2317,740.39 370.0717,765.6" fill="none" id="GameView-to-ScoreState" style="stroke:#181818;stroke-width:1;stroke-dasharray:7.0,7.0;"/><polygon fill="#181818" points="364.99,768.79,374.7393,767.3928,369.2248,766.1317,370.4859,760.6172,364.99,768.79" style="stroke:#181818;stroke-width:1;"/><text fill="#000000" font-family="sans-serif" font-size="13" lengthAdjust="spacing" textLength="51.105" x="509.82" y="686.2584">displays</text></g><!--reverse link GameView to CanastaConsole--><g class="link" data-entity-1="GameView" data-entity-2="CanastaConsole" data-source-line="104" data-uid="lnk18" id="link_GameView_CanastaConsole"><path codeLine="104" d="M832.2217,580.7356 C828.3017,660.5956 823.72,753.77 820.95,810.13" fill="none" id="GameView-backto-CanastaConsole" style="stroke:#181818;stroke-width:1;"/><polygon fill="#181818" points="832.81,568.75,828.5206,574.5467,832.2217,580.7356,836.511,574.9389,832.81,568.75" style="stroke:#181818;stroke-width:1;"/><text fill="#000000" font-family="sans-serif" font-size="13" lengthAdjust="spacing" textLength="56.5386" x="828.36" y="686.2584">manages</text></g><!--reverse link GameView to InputGuard--><g class="link" data-entity-1="GameView" data-entity-2="InputGuard" data-source-line="105" data-uid="lnk19" id="link_GameView_InputGuard"><path codeLine="105" d="M891.0602,579.6723 C927.4002,659.5323 970.28,753.77 995.92,810.13" fill="none" id="GameView-backto-InputGuard" style="stroke:#181818;stroke-width:1;"/><polygon fill="#181818" points="886.09,568.75,884.9343,575.8679,891.0602,579.6723,892.2159,572.5544,886.09,568.75" style="stroke:#181818;stroke-width:1;"/><text fill="#000000" font-family="sans-serif" font-size="13" lengthAdjust="spacing" textLength="56.5386" x="937.54" y="686.2584">manages</text></g><!--link GameView to CardView--><g class="link" data-entity-1="GameView" data-entity-2="CardView" data-source-line="106" data-uid="lnk20" id="link_GameView_CardView"><path codeLine="106" d="M951.45,568.73 C997.13,613.51 1049.04,667.36 1092,719.69 C1115.63,748.47 1135.8756,778.4973 1152.6156,804.9973" fill="none" id="GameView-to-CardView" style="stroke:#181818;stroke-width:1;stroke-dasharray:7.0,7.0;"/><polygon fill="#181818" points="1155.82,810.07,1154.3952,800.3247,1153.1497,805.8428,1147.6316,804.5973,1155.82,810.07" style="stroke:#181818;stroke-width:1;"/></g><!--link GameView to MeldView--><g class="link" data-entity-1="GameView" data-entity-2="MeldView" data-source-line="107" data-uid="lnk21" id="link_GameView_MeldView"><path codeLine="107" d="M768.32,568.75 C718.18,644.81 656.212,738.8103 618.022,796.7503" fill="none" id="GameView-to-MeldView" style="stroke:#181818;stroke-width:1;stroke-dasharray:7.0,7.0;"/><polygon fill="#181818" points="614.72,801.76,623.0128,796.4469,617.4717,797.5853,616.3333,792.0442,614.72,801.76" style="stroke:#181818;stroke-width:1;"/></g><!--SRC=[lLVVRzis47xFNq6qG21tSOUjnO0AWO35JZe3IHCaMViOqDJL9aoJ6adPJOViR-yTPLcK9Jjj7-O7YIQ_EzwFZxnJmSM2pu2z62a9shzW_nuTCVm9nPrZ8wwvytnaj3CAsCkBqVZtT-yGmpQ_NrXXfVR9qirEc33As1EcOQsaXa444WguJQgPftY3YIvA_xxaDkzLtYmdiRh_ElCjfPKh7y2lZLsmbwEpypVZtoAzGoODkkJXYqzn-22gyN44S4OiW5QBDFK27zL4XB208Lc1ZJ3rL8GImPGRnH_1Vk1BI9dp6B1P0nb6VhKCJ_gDR8NLQ0t29tFZ_0ahZANdTgyOcKjNWmT7qRm3dOyjNuz1B5eXfeLxle0n2cAORwI2pleLg3ony4y9phkKhL2xiQSqUrjDPhiI6sq9FL9abyrt4RU00UmOwQ_rU_JepdCFVnSvFb65KbCaRygsAwFDr61Nza_XfT7drXeRoON_UsKkpKpgkr88S2uI-cXaVbZcWajLsjZ0U7glxBZ9qA7TdZey9v9OenHOF49lnt-SjwckApOXyURSGlvGU7lQubaMWPN1lG-nbQqahAkGVyHHpFJIMbHwPZ2f8HifQyQ7wDxOduZOhhHz75xj8tvjP7K0wd-3rXLbA8kLN_UbrOafY11SdJgVuzaE4XbR8WZlmhuR1HqXV-jBAhwZPk0l-HHKCkY4AooEw5QanJ3ewgRp4kjcEyflkLwGEBrtDADLZfOs9u_-Pn54kecMNd8blq9EkAangcj0awPz9loA36LNZ_V0bsHjl6TjVTOZSLqKHcC6VrJkwl4lheF1zEu1q6qL30vX3IoXgLvLLTO9M8rkogcIOg8_cpqME-dXXuGkuRDl1BRKsfNiy_HMpkO_Arlbuzvuhkw4iI4MM8gVoSFtu9jCtnX4k1Pr3gVua02jJtGENowC3QIs-AXu7VlkaAqFFkloD5ZzlJmDu3CBV96RjIQ3sZFF-F8JulYkqkP6fiIMYAw3uCh_chk9exlvUbKHQa_M0gJqmYoXHRlgA4Mh6Sd5cUYK73CSxlHRATxEosMffS1CkNwfLoWLNJieWe4zY8wItqP71AchKWyzXbGog8TDTthQkET3jQ0fq_IUOBjbEJOEgnWZjurd5BQc6ytw2nqMe6NXxq9nI49dX89rjJWEFPk0kL4vjPERsRvgKkaPpOqKy4dwUGZXLY4su66bQSKsXGrtc6w3tM6EBJMTp4_oAocRzjRluq5lUzVMicdkdbL4PIhkVkPcJMjI11ZvTLKLOfTiAl8p7lKggyw9sz8cZIZKQgAnQqVD49BO_fhe9UAMP2bR8fDc6nfkfr-_pjhKnjQRUl8UM8lJ_J3QSUSZRC- -X8o-fWvOLpSptPMwA1yzVGC0]--></g></svg>