<svg xmlns="http://www.w3.org/2000/svg" xmlns:xlink="http://www.w3.org/1999/xlink" contentStyleType="text/css" data-diagram-type="CLASS" height="1677px" preserveAspectRatio="none" style="width:1255px;height:1677px;background:#FFFFFF;" version="1.1" viewBox="0 0 1255 1677" width="1255px" zoomAndPan="magnify"><defs/><g><!--cluster Server--><g class="cluster" data-entity="Server" data-source-line="4" data-uid="ent0002" id="cluster_Server"><rect fill="none" height="1664.32" rx="2.5" ry="2.5" style="stroke:#000000;stroke-width:1.5;" width="1242" x="7" y="7"/><text fill="#000000" font-family="sans-serif" font-size="14" font-weight="bold" lengthAdjust="spacing" textLength="45.4385" x="605.2808" y="22.5352">Server</text></g><!--class ServerDeck--><g class="entity" data-entity="ServerDeck" data-source-line="5" data-uid="ent0003" id="entity_ServerDeck"><rect fill="#F4D6E1" height="179.9063" rx="2.5" ry="2.5" style="stroke:#181818;stroke-width:0.5;" width="376.3555" x="22.82" y="1325.19"/><ellipse cx="169.0065" cy="1341.19" fill="#ADD1B2" rx="11" ry="11" style="stroke:#181818;stroke-width:1;"/><path d="M171.4797,1347.3331 Q170.8986,1347.6319 170.2595,1347.7813 Q169.6203,1347.9307 168.9147,1347.9307 Q166.4079,1347.9307 165.0881,1346.2789 Q163.7682,1344.627 163.7682,1341.5059 Q163.7682,1338.3765 165.0881,1336.7247 Q166.4079,1335.0728 168.9147,1335.0728 Q169.6203,1335.0728 170.2678,1335.2222 Q170.9152,1335.3716 171.4797,1335.6705 L171.4797,1338.3931 Q170.8488,1337.8121 170.2553,1337.5423 Q169.6618,1337.2725 169.0309,1337.2725 Q167.6862,1337.2725 167.0014,1338.3392 Q166.3166,1339.4058 166.3166,1341.5059 Q166.3166,1343.5977 167.0014,1344.6644 Q167.6862,1345.731 169.0309,1345.731 Q169.6618,1345.731 170.2553,1345.4612 Q170.8488,1345.1915 171.4797,1344.6104 Z " fill="#000000"/><text fill="#000000" font-family="sans-serif" font-size="14" lengthAdjust="spacing" textLength="75.4824" x="189.5065" y="1346.481">ServerDeck</text><line style="stroke:#181818;stroke-width:0.5;" x1="23.82" x2="398.1755" y1="1357.19" y2="1357.19"/><rect fill="none" height="6" style="stroke:#C82930;stroke-width:1;" width="6" x="30.82" y="1367.9341"/><text fill="#000000" font-family="sans-serif" font-size="14" lengthAdjust="spacing" textLength="172.0332" x="42.82" y="1374.7252">mainDeck: vector&lt;Card&gt;</text><rect fill="none" height="6" style="stroke:#C82930;stroke-width:1;" width="6" x="30.82" y="1384.4224"/><text fill="#000000" font-family="sans-serif" font-size="14" lengthAdjust="spacing" textLength="177.9258" x="42.82" y="1391.2134">discardPile: vector&lt;Card&gt;</text><line style="stroke:#181818;stroke-width:1;" x1="23.82" x2="398.1755" y1="1398.1666" y2="1398.1666"/><ellipse cx="33.82" cy="1411.9107" fill="#84BE84" rx="3" ry="3" style="stroke:#038048;stroke-width:1;"/><text fill="#000000" font-family="sans-serif" font-size="14" lengthAdjust="spacing" textLength="192.958" x="42.82" y="1415.7017">drawCard(): optional&lt;Card&gt;</text><ellipse cx="33.82" cy="1428.399" fill="#84BE84" rx="3" ry="3" style="stroke:#038048;stroke-width:1;"/><text fill="#000000" font-family="sans-serif" font-size="14" lengthAdjust="spacing" textLength="227.083" x="42.82" y="1432.19">getTopDiscard(): optional&lt;Card&gt;</text><ellipse cx="33.82" cy="1444.8873" fill="#84BE84" rx="3" ry="3" style="stroke:#038048;stroke-width:1;"/><text fill="#000000" font-family="sans-serif" font-size="14" lengthAdjust="spacing" textLength="160.7607" x="42.82" y="1448.6783">discardCard(card: Card)</text><ellipse cx="33.82" cy="1461.3755" fill="#84BE84" rx="3" ry="3" style="stroke:#038048;stroke-width:1;"/><text fill="#000000" font-family="sans-serif" font-size="14" lengthAdjust="spacing" textLength="350.3555" x="42.82" y="1465.1666">takeDiscardPile(): expected&lt;vector&lt;Card&gt;, string&gt;</text><ellipse cx="33.82" cy="1477.8638" fill="#84BE84" rx="3" ry="3" style="stroke:#038048;stroke-width:1;"/><text fill="#000000" font-family="sans-serif" font-size="14" lengthAdjust="spacing" textLength="155.9551" x="42.82" y="1481.6548">revertTakeDiscardPile()</text><ellipse cx="33.82" cy="1494.3521" fill="#84BE84" rx="3" ry="3" style="stroke:#038048;stroke-width:1;"/><text fill="#000000" font-family="sans-serif" font-size="14" lengthAdjust="spacing" textLength="105.5537" x="42.82" y="1498.1431">isFrozen(): bool</text></g><!--class TurnManager--><g class="entity" data-entity="TurnManager" data-source-line="17" data-uid="ent0004" id="entity_TurnManager"><rect fill="#F4D6E1" height="196.3945" rx="2.5" ry="2.5" style="stroke:#181818;stroke-width:0.5;" width="501.8359" x="315.08" y="1043.55"/><ellipse cx="516.5351" cy="1059.55" fill="#ADD1B2" rx="11" ry="11" style="stroke:#181818;stroke-width:1;"/><path d="M519.0082,1065.6931 Q518.4272,1065.9919 517.788,1066.1413 Q517.1488,1066.2907 516.4433,1066.2907 Q513.9364,1066.2907 512.6166,1064.6389 Q511.2968,1062.987 511.2968,1059.8659 Q511.2968,1056.7365 512.6166,1055.0847 Q513.9364,1053.4328 516.4433,1053.4328 Q517.1488,1053.4328 517.7963,1053.5822 Q518.4438,1053.7316 519.0082,1054.0305 L519.0082,1056.7531 Q518.3774,1056.1721 517.7839,1055.9023 Q517.1904,1055.6325 516.5595,1055.6325 Q515.2148,1055.6325 514.53,1056.6992 Q513.8451,1057.7658 513.8451,1059.8659 Q513.8451,1061.9577 514.53,1063.0244 Q515.2148,1064.091 516.5595,1064.091 Q517.1904,1064.091 517.7839,1063.8212 Q518.3774,1063.5515 519.0082,1062.9704 Z " fill="#000000"/><text fill="#000000" font-family="sans-serif" font-size="14" lengthAdjust="spacing" textLength="90.4258" x="537.0351" y="1064.841">TurnManager</text><line style="stroke:#181818;stroke-width:0.5;" x1="316.08" x2="815.9159" y1="1075.55" y2="1075.55"/><rect fill="none" height="6" style="stroke:#C82930;stroke-width:1;" width="6" x="323.08" y="1086.2941"/><text fill="#000000" font-family="sans-serif" font-size="14" lengthAdjust="spacing" textLength="97.3984" x="335.08" y="1093.0852">player: Player*</text><rect fill="none" height="6" style="stroke:#C82930;stroke-width:1;" width="6" x="323.08" y="1102.7824"/><text fill="#000000" font-family="sans-serif" font-size="14" lengthAdjust="spacing" textLength="85.0459" x="335.08" y="1109.5734">hand: Hand*</text><rect fill="none" height="6" style="stroke:#C82930;stroke-width:1;" width="6" x="323.08" y="1119.2707"/><text fill="#000000" font-family="sans-serif" font-size="14" lengthAdjust="spacing" textLength="241.2676" x="335.08" y="1126.0617">teamRoundState: TeamRoundState*</text><rect fill="none" height="6" style="stroke:#C82930;stroke-width:1;" width="6" x="323.08" y="1135.759"/><text fill="#000000" font-family="sans-serif" font-size="14" lengthAdjust="spacing" textLength="166.168" x="335.08" y="1142.55">serverDeck: ServerDeck*</text><line style="stroke:#181818;stroke-width:1;" x1="316.08" x2="815.9159" y1="1149.5031" y2="1149.5031"/><ellipse cx="326.08" cy="1163.2473" fill="#84BE84" rx="3" ry="3" style="stroke:#038048;stroke-width:1;"/><text fill="#000000" font-family="sans-serif" font-size="14" lengthAdjust="spacing" textLength="249.2246" x="335.08" y="1167.0383">handleDrawDeck(): TurnActionResult</text><ellipse cx="326.08" cy="1179.7355" fill="#84BE84" rx="3" ry="3" style="stroke:#038048;stroke-width:1;"/><text fill="#000000" font-family="sans-serif" font-size="14" lengthAdjust="spacing" textLength="288.1621" x="335.08" y="1183.5266">handleTakeDiscardPile(): TurnActionResult</text><ellipse cx="326.08" cy="1196.2238" fill="#84BE84" rx="3" ry="3" style="stroke:#038048;stroke-width:1;"/><text fill="#000000" font-family="sans-serif" font-size="14" lengthAdjust="spacing" textLength="475.8359" x="335.08" y="1200.0148">handleMelds(meldRequests: vector&lt;MeldRequest&gt;): TurnActionResult</text><ellipse cx="326.08" cy="1212.7121" fill="#84BE84" rx="3" ry="3" style="stroke:#038048;stroke-width:1;"/><text fill="#000000" font-family="sans-serif" font-size="14" lengthAdjust="spacing" textLength="370.7881" x="335.08" y="1216.5031">handleDiscard(cardToDiscard: Card): TurnActionResult</text><ellipse cx="326.08" cy="1229.2004" fill="#84BE84" rx="3" ry="3" style="stroke:#038048;stroke-width:1;"/><text fill="#000000" font-family="sans-serif" font-size="14" lengthAdjust="spacing" textLength="223.5146" x="335.08" y="1232.9914">handleRevert(): TurnActionResult</text></g><!--class MeldCommitmentType--><g class="entity" data-entity="MeldCommitmentType" data-source-line="31" data-uid="ent0005" id="entity_MeldCommitmentType"><rect fill="#F1F1F1" height="80.9766" rx="2.5" ry="2.5" style="stroke:#181818;stroke-width:0.5;" width="186" x="467" y="1574.34"/><ellipse cx="482" cy="1590.34" fill="#EB937F" rx="11" ry="11" style="stroke:#181818;stroke-width:1;"/><path d="M485.6143,1596.84 L477.8945,1596.84 L477.8945,1584.4469 L485.6143,1584.4469 L485.6143,1586.6051 L480.3433,1586.6051 L480.3433,1589.278 L485.1162,1589.278 L485.1162,1591.4362 L480.3433,1591.4362 L480.3433,1594.6818 L485.6143,1594.6818 Z " fill="#000000"/><text fill="#000000" font-family="sans-serif" font-size="14" lengthAdjust="spacing" textLength="154" x="496" y="1595.631">MeldCommitmentType</text><line style="stroke:#181818;stroke-width:0.5;" x1="468" x2="652" y1="1606.34" y2="1606.34"/><text fill="#000000" font-family="sans-serif" font-size="14" lengthAdjust="spacing" textLength="57.7021" x="473" y="1623.8752">Initialize</text><text fill="#000000" font-family="sans-serif" font-size="14" lengthAdjust="spacing" textLength="98.793" x="473" y="1640.3634">AddToExisting</text><line style="stroke:#181818;stroke-width:0.5;" x1="468" x2="652" y1="1647.3166" y2="1647.3166"/></g><!--class MeldCommitment--><g class="entity" data-entity="MeldCommitment" data-source-line="36" data-uid="ent0006" id="entity_MeldCommitment"><rect fill="#F4D6E1" height="97.4648" rx="2.5" ry="2.5" style="stroke:#181818;stroke-width:0.5;" width="252.5088" x="433.75" y="1366.41"/><ellipse cx="495.1436" cy="1382.41" fill="#ADD1B2" rx="11" ry="11" style="stroke:#181818;stroke-width:1;"/><path d="M497.6167,1388.5531 Q497.0356,1388.8519 496.3965,1389.0013 Q495.7573,1389.1507 495.0518,1389.1507 Q492.5449,1389.1507 491.2251,1387.4989 Q489.9053,1385.847 489.9053,1382.7259 Q489.9053,1379.5965 491.2251,1377.9447 Q492.5449,1376.2928 495.0518,1376.2928 Q495.7573,1376.2928 496.4048,1376.4422 Q497.0522,1376.5916 497.6167,1376.8905 L497.6167,1379.6131 Q496.9858,1379.0321 496.3923,1378.7623 Q495.7988,1378.4925 495.168,1378.4925 Q493.8232,1378.4925 493.1384,1379.5592 Q492.4536,1380.6258 492.4536,1382.7259 Q492.4536,1384.8177 493.1384,1385.8844 Q493.8232,1386.951 495.168,1386.951 Q495.7988,1386.951 496.3923,1386.6812 Q496.9858,1386.4115 497.6167,1385.8304 Z " fill="#000000"/><text fill="#000000" font-family="sans-serif" font-size="14" lengthAdjust="spacing" textLength="121.2217" x="515.6436" y="1387.701">MeldCommitment</text><line style="stroke:#181818;stroke-width:0.5;" x1="434.75" x2="685.2588" y1="1398.41" y2="1398.41"/><line style="stroke:#181818;stroke-width:0.5;" x1="434.75" x2="685.2588" y1="1406.41" y2="1406.41"/><ellipse cx="444.75" cy="1420.1541" fill="#84BE84" rx="3" ry="3" style="stroke:#038048;stroke-width:1;"/><text fill="#000000" font-family="sans-serif" font-size="14" lengthAdjust="spacing" textLength="226.5088" x="453.75" y="1423.9452">getType(): MeldCommitmentType</text><ellipse cx="444.75" cy="1436.6424" fill="#84BE84" rx="3" ry="3" style="stroke:#038048;stroke-width:1;"/><text fill="#000000" font-family="sans-serif" font-size="14" lengthAdjust="spacing" textLength="106.6406" x="453.75" y="1440.4334">getRank(): Rank</text><ellipse cx="444.75" cy="1453.1307" fill="#84BE84" rx="3" ry="3" style="stroke:#038048;stroke-width:1;"/><text fill="#000000" font-family="sans-serif" font-size="14" lengthAdjust="spacing" textLength="119.875" x="453.75" y="1456.9217">getCount(): size_t</text></g><!--class RuleEngine--><g class="entity" data-entity="RuleEngine" data-source-line="42" data-uid="ent0007" id="entity_RuleEngine"><rect fill="#F4D6E1" height="196.3945" rx="2.5" ry="2.5" style="stroke:#181818;stroke-width:0.5;" width="512.1855" x="720.91" y="1316.95"/><ellipse cx="935.2884" cy="1332.95" fill="#ADD1B2" rx="11" ry="11" style="stroke:#181818;stroke-width:1;"/><path d="M937.7616,1339.0931 Q937.1805,1339.3919 936.5413,1339.5413 Q935.9022,1339.6907 935.1966,1339.6907 Q932.6898,1339.6907 931.37,1338.0389 Q930.0501,1336.387 930.0501,1333.2659 Q930.0501,1330.1365 931.37,1328.4847 Q932.6898,1326.8328 935.1966,1326.8328 Q935.9022,1326.8328 936.5496,1326.9822 Q937.1971,1327.1316 937.7616,1327.4305 L937.7616,1330.1531 Q937.1307,1329.5721 936.5372,1329.3023 Q935.9437,1329.0325 935.3128,1329.0325 Q933.9681,1329.0325 933.2833,1330.0992 Q932.5985,1331.1658 932.5985,1333.2659 Q932.5985,1335.3577 933.2833,1336.4244 Q933.9681,1337.491 935.3128,1337.491 Q935.9437,1337.491 936.5372,1337.2212 Q937.1307,1336.9515 937.7616,1336.3704 Z " fill="#000000"/><text fill="#000000" font-family="sans-serif" font-size="14" lengthAdjust="spacing" textLength="74.9287" x="955.7884" y="1338.241">RuleEngine</text><line style="stroke:#181818;stroke-width:0.5;" x1="721.91" x2="1232.0955" y1="1348.95" y2="1348.95"/><line style="stroke:#181818;stroke-width:0.5;" x1="721.91" x2="1232.0955" y1="1356.95" y2="1356.95"/><ellipse cx="731.91" cy="1370.6941" fill="#84BE84" rx="3" ry="3" style="stroke:#038048;stroke-width:1;"/><text fill="#000000" font-family="sans-serif" font-size="14" lengthAdjust="spacing" textLength="394.6523" x="740.91" y="1374.4852">canDiscard(playerHand: Hand&amp;, discardCard: Card&amp;): bool</text><ellipse cx="731.91" cy="1387.1824" fill="#84BE84" rx="3" ry="3" style="stroke:#038048;stroke-width:1;"/><text fill="#000000" font-family="sans-serif" font-size="14" lengthAdjust="spacing" textLength="486.1855" x="740.91" y="1390.9734">suggestMeld(cards: vector&lt;Card&gt;): expected&lt;MeldSuggestion, string&gt;</text><ellipse cx="731.91" cy="1403.6707" fill="#84BE84" rx="3" ry="3" style="stroke:#038048;stroke-width:1;"/><text fill="#000000" font-family="sans-serif" font-size="14" lengthAdjust="spacing" textLength="270.5869" x="740.91" y="1407.4617">checkGameOutcome(...): GameOutcome</text><ellipse cx="731.91" cy="1420.159" fill="#84BE84" rx="3" ry="3" style="stroke:#038048;stroke-width:1;"/><text fill="#000000" font-family="sans-serif" font-size="14" lengthAdjust="spacing" textLength="149.8848" x="740.91" y="1423.95">canGoingOut(...): bool</text><ellipse cx="731.91" cy="1436.6473" fill="#84BE84" rx="3" ry="3" style="stroke:#038048;stroke-width:1;"/><text fill="#000000" font-family="sans-serif" font-size="14" lengthAdjust="spacing" textLength="364.6768" x="740.91" y="1440.4383">validatePointsForInitialMelds(...): expected&lt;void, int&gt;</text><ellipse cx="731.91" cy="1453.1355" fill="#84BE84" rx="3" ry="3" style="stroke:#038048;stroke-width:1;"/><text fill="#000000" font-family="sans-serif" font-size="14" lengthAdjust="spacing" textLength="450.4814" x="740.91" y="1456.9266">validateRankMeldInitializationProposals(...): expected&lt;int, string&gt;</text><ellipse cx="731.91" cy="1469.6238" fill="#84BE84" rx="3" ry="3" style="stroke:#038048;stroke-width:1;"/><text fill="#000000" font-family="sans-serif" font-size="14" lengthAdjust="spacing" textLength="374.8418" x="740.91" y="1473.4148">validateBlackThreeMeldInitializationProposal(...): Status</text><ellipse cx="731.91" cy="1486.1121" fill="#84BE84" rx="3" ry="3" style="stroke:#038048;stroke-width:1;"/><text fill="#000000" font-family="sans-serif" font-size="14" lengthAdjust="spacing" textLength="315.0752" x="740.91" y="1489.9031">validateRankMeldAdditionProposals(...): Status</text><ellipse cx="731.91" cy="1502.6004" fill="#84BE84" rx="3" ry="3" style="stroke:#038048;stroke-width:1;"/><text fill="#000000" font-family="sans-serif" font-size="14" lengthAdjust="spacing" textLength="445.1631" x="740.91" y="1506.3914">checkTakingDiscardPile(...): expected&lt;MeldCommitment, string&gt;</text></g><!--class RoundManager--><g class="entity" data-entity="RoundManager" data-source-line="62" data-uid="ent0012" id="entity_RoundManager"><rect fill="#F4D6E1" height="262.3477" rx="2.5" ry="2.5" style="stroke:#181818;stroke-width:0.5;" width="556.1611" x="346.92" y="704.21"/><ellipse cx="569.6964" cy="720.21" fill="#ADD1B2" rx="11" ry="11" style="stroke:#181818;stroke-width:1;"/><path d="M572.1695,726.3531 Q571.5885,726.6519 570.9493,726.8013 Q570.3101,726.9507 569.6046,726.9507 Q567.0977,726.9507 565.7779,725.2989 Q564.4581,723.647 564.4581,720.5259 Q564.4581,717.3965 565.7779,715.7447 Q567.0977,714.0928 569.6046,714.0928 Q570.3101,714.0928 570.9576,714.2422 Q571.6051,714.3916 572.1695,714.6905 L572.1695,717.4131 Q571.5387,716.8321 570.9451,716.5623 Q570.3516,716.2925 569.7208,716.2925 Q568.3761,716.2925 567.6912,717.3592 Q567.0064,718.4258 567.0064,720.5259 Q567.0064,722.6177 567.6912,723.6844 Q568.3761,724.751 569.7208,724.751 Q570.3516,724.751 570.9451,724.4812 Q571.5387,724.2115 572.1695,723.6304 Z " fill="#000000"/><text fill="#000000" font-family="sans-serif" font-size="14" lengthAdjust="spacing" textLength="102.1084" x="590.1964" y="725.501">RoundManager</text><line style="stroke:#181818;stroke-width:0.5;" x1="347.92" x2="902.0811" y1="736.21" y2="736.21"/><rect fill="none" height="6" style="stroke:#C82930;stroke-width:1;" width="6" x="354.92" y="746.9541"/><text fill="#000000" font-family="sans-serif" font-size="14" lengthAdjust="spacing" textLength="159.4209" x="366.92" y="753.7452">serverDeck: ServerDeck</text><rect fill="none" height="6" style="stroke:#C82930;stroke-width:1;" width="6" x="354.92" y="763.4424"/><text fill="#000000" font-family="sans-serif" font-size="14" lengthAdjust="spacing" textLength="199.7324" x="366.92" y="770.2334">team1State: TeamRoundState</text><rect fill="none" height="6" style="stroke:#C82930;stroke-width:1;" width="6" x="354.92" y="779.9307"/><text fill="#000000" font-family="sans-serif" font-size="14" lengthAdjust="spacing" textLength="199.7324" x="366.92" y="786.7217">team2State: TeamRoundState</text><rect fill="none" height="6" style="stroke:#C82930;stroke-width:1;" width="6" x="354.92" y="796.419"/><text fill="#000000" font-family="sans-serif" font-size="14" lengthAdjust="spacing" textLength="245.499" x="366.92" y="803.21">currentTurnManager: TurnManager*</text><line style="stroke:#181818;stroke-width:1;" x1="347.92" x2="902.0811" y1="810.1631" y2="810.1631"/><ellipse cx="357.92" cy="823.9073" fill="#84BE84" rx="3" ry="3" style="stroke:#038048;stroke-width:1;"/><text fill="#000000" font-family="sans-serif" font-size="14" lengthAdjust="spacing" textLength="83.8154" x="366.92" y="827.6983">startRound()</text><ellipse cx="357.92" cy="840.3955" fill="#84BE84" rx="3" ry="3" style="stroke:#038048;stroke-width:1;"/><text fill="#000000" font-family="sans-serif" font-size="14" lengthAdjust="spacing" textLength="134.4971" x="366.92" y="844.1866">isRoundOver(): bool</text><ellipse cx="357.92" cy="856.8838" fill="#84BE84" rx="3" ry="3" style="stroke:#038048;stroke-width:1;"/><text fill="#000000" font-family="sans-serif" font-size="14" lengthAdjust="spacing" textLength="181.7676" x="366.92" y="860.6748">getCurrentPlayer(): Player&amp;</text><ellipse cx="357.92" cy="873.3721" fill="#84BE84" rx="3" ry="3" style="stroke:#038048;stroke-width:1;"/><text fill="#000000" font-family="sans-serif" font-size="14" lengthAdjust="spacing" textLength="303.5498" x="366.92" y="877.1631">handleDrawDeckRequest(): TurnActionResult</text><ellipse cx="357.92" cy="889.8604" fill="#84BE84" rx="3" ry="3" style="stroke:#038048;stroke-width:1;"/><text fill="#000000" font-family="sans-serif" font-size="14" lengthAdjust="spacing" textLength="342.4873" x="366.92" y="893.6514">handleTakeDiscardPileRequest(): TurnActionResult</text><ellipse cx="357.92" cy="906.3487" fill="#84BE84" rx="3" ry="3" style="stroke:#038048;stroke-width:1;"/><text fill="#000000" font-family="sans-serif" font-size="14" lengthAdjust="spacing" textLength="530.1611" x="366.92" y="910.1397">handleMeldsRequest(meldRequests: vector&lt;MeldRequest&gt;): TurnActionResult</text><ellipse cx="357.92" cy="922.837" fill="#84BE84" rx="3" ry="3" style="stroke:#038048;stroke-width:1;"/><text fill="#000000" font-family="sans-serif" font-size="14" lengthAdjust="spacing" textLength="425.1133" x="366.92" y="926.628">handleDiscardRequest(cardToDiscard: Card): TurnActionResult</text><ellipse cx="357.92" cy="939.3252" fill="#84BE84" rx="3" ry="3" style="stroke:#038048;stroke-width:1;"/><text fill="#000000" font-family="sans-serif" font-size="14" lengthAdjust="spacing" textLength="277.8398" x="366.92" y="943.1162">handleRevertRequest(): TurnActionResult</text><ellipse cx="357.92" cy="955.8135" fill="#84BE84" rx="3" ry="3" style="stroke:#038048;stroke-width:1;"/><text fill="#000000" font-family="sans-serif" font-size="14" lengthAdjust="spacing" textLength="333.0811" x="366.92" y="959.6045">calculateScores(): map&lt;string, ScoreBreakdown&gt;</text></g><!--class Session--><g class="entity" data-entity="Session" data-source-line="85" data-uid="ent0016" id="entity_Session"><rect fill="#CBE3D1" height="146.9297" rx="2.5" ry="2.5" style="stroke:#181818;stroke-width:0.5;" width="242.207" x="312.9" y="422.57"/><ellipse cx="404.2794" cy="438.57" fill="#ADD1B2" rx="11" ry="11" style="stroke:#181818;stroke-width:1;"/><path d="M406.7525,444.7131 Q406.1715,445.0119 405.5323,445.1613 Q404.8932,445.3107 404.1876,445.3107 Q401.6808,445.3107 400.3609,443.6589 Q399.0411,442.007 399.0411,438.8859 Q399.0411,435.7565 400.3609,434.1047 Q401.6808,432.4528 404.1876,432.4528 Q404.8932,432.4528 405.5406,432.6022 Q406.1881,432.7516 406.7525,433.0505 L406.7525,435.7731 Q406.1217,435.1921 405.5282,434.9223 Q404.9347,434.6525 404.3038,434.6525 Q402.9591,434.6525 402.2743,435.7192 Q401.5895,436.7858 401.5895,438.8859 Q401.5895,440.9777 402.2743,442.0444 Q402.9591,443.111 404.3038,443.111 Q404.9347,443.111 405.5282,442.8412 Q406.1217,442.5715 406.7525,441.9904 Z " fill="#000000"/><text fill="#000000" font-family="sans-serif" font-size="14" lengthAdjust="spacing" textLength="50.9482" x="424.7794" y="443.861">Session</text><line style="stroke:#181818;stroke-width:0.5;" x1="313.9" x2="554.107" y1="454.57" y2="454.57"/><rect fill="none" height="6" style="stroke:#C82930;stroke-width:1;" width="6" x="320.9" y="465.3141"/><text fill="#000000" font-family="sans-serif" font-size="14" lengthAdjust="spacing" textLength="197.4629" x="332.9" y="472.1052">socket: ip::tcp::socket socket</text><rect fill="none" height="6" style="stroke:#C82930;stroke-width:1;" width="6" x="320.9" y="481.8024"/><text fill="#000000" font-family="sans-serif" font-size="14" lengthAdjust="spacing" textLength="128.8027" x="332.9" y="488.5934">playerName: string</text><rect fill="none" height="6" style="stroke:#C82930;stroke-width:1;" width="6" x="320.9" y="498.2907"/><text fill="#000000" font-family="sans-serif" font-size="14" lengthAdjust="spacing" textLength="81.1221" x="332.9" y="505.0817">joined: bool</text><line style="stroke:#181818;stroke-width:1;" x1="313.9" x2="554.107" y1="512.0348" y2="512.0348"/><ellipse cx="323.9" cy="525.779" fill="#84BE84" rx="3" ry="3" style="stroke:#038048;stroke-width:1;"/><text fill="#000000" font-family="sans-serif" font-size="14" lengthAdjust="spacing" textLength="40.1748" x="332.9" y="529.57">start()</text><ellipse cx="323.9" cy="542.2673" fill="#84BE84" rx="3" ry="3" style="stroke:#038048;stroke-width:1;"/><text fill="#000000" font-family="sans-serif" font-size="14" lengthAdjust="spacing" textLength="216.207" x="332.9" y="546.0583">deliver(message: vector&lt;char&gt;)</text><ellipse cx="323.9" cy="558.7555" fill="#84BE84" rx="3" ry="3" style="stroke:#038048;stroke-width:1;"/><text fill="#000000" font-family="sans-serif" font-size="14" lengthAdjust="spacing" textLength="158.6006" x="332.9" y="562.5466">getPlayerName(): string</text></g><!--class GameManager--><g class="entity" data-entity="GameManager" data-source-line="95" data-uid="ent0017" id="entity_GameManager"><rect fill="#F4D6E1" height="262.3477" rx="2.5" ry="2.5" style="stroke:#181818;stroke-width:0.5;" width="344.0693" x="689.97" y="364.86"/><ellipse cx="809.1614" cy="380.86" fill="#ADD1B2" rx="11" ry="11" style="stroke:#181818;stroke-width:1;"/><path d="M811.6346,387.0031 Q811.0535,387.3019 810.4143,387.4513 Q809.7752,387.6007 809.0696,387.6007 Q806.5628,387.6007 805.2429,385.9489 Q803.9231,384.297 803.9231,381.1759 Q803.9231,378.0465 805.2429,376.3947 Q806.5628,374.7428 809.0696,374.7428 Q809.7752,374.7428 810.4226,374.8922 Q811.0701,375.0416 811.6346,375.3405 L811.6346,378.0631 Q811.0037,377.4821 810.4102,377.2123 Q809.8167,376.9425 809.1858,376.9425 Q807.8411,376.9425 807.1563,378.0092 Q806.4715,379.0758 806.4715,381.1759 Q806.4715,383.2677 807.1563,384.3344 Q807.8411,385.401 809.1858,385.401 Q809.8167,385.401 810.4102,385.1312 Q811.0037,384.8615 811.6346,384.2804 Z " fill="#000000"/><text fill="#000000" font-family="sans-serif" font-size="14" lengthAdjust="spacing" textLength="97.1865" x="829.6614" y="386.151">GameManager</text><line style="stroke:#181818;stroke-width:0.5;" x1="690.97" x2="1033.0393" y1="396.86" y2="396.86"/><rect fill="none" height="6" style="stroke:#C82930;stroke-width:1;" width="6" x="697.97" y="407.6041"/><text fill="#000000" font-family="sans-serif" font-size="14" lengthAdjust="spacing" textLength="176.5791" x="709.97" y="414.3952">allPlayers: vector&lt;Player&gt;</text><rect fill="none" height="6" style="stroke:#C82930;stroke-width:1;" width="6" x="697.97" y="424.0924"/><text fill="#000000" font-family="sans-serif" font-size="14" lengthAdjust="spacing" textLength="89.0039" x="709.97" y="430.8834">team1: Team</text><rect fill="none" height="6" style="stroke:#C82930;stroke-width:1;" width="6" x="697.97" y="440.5807"/><text fill="#000000" font-family="sans-serif" font-size="14" lengthAdjust="spacing" textLength="89.0039" x="709.97" y="447.3717">team2: Team</text><rect fill="none" height="6" style="stroke:#C82930;stroke-width:1;" width="6" x="697.97" y="457.069"/><text fill="#000000" font-family="sans-serif" font-size="14" lengthAdjust="spacing" textLength="210.3965" x="709.97" y="463.86">currentRound: RoundManager*</text><line style="stroke:#181818;stroke-width:1;" x1="690.97" x2="1033.0393" y1="470.8131" y2="470.8131"/><text fill="#000000" font-family="sans-serif" font-size="14" lengthAdjust="spacing" textLength="243.8652" x="709.97" y="488.3483">GameManager(playersCount: size_t)</text><ellipse cx="700.97" cy="501.0455" fill="#84BE84" rx="3" ry="3" style="stroke:#038048;stroke-width:1;"/><text fill="#000000" font-family="sans-serif" font-size="14" lengthAdjust="spacing" textLength="78.8936" x="709.97" y="504.8366">startGame()</text><ellipse cx="700.97" cy="517.5338" fill="#84BE84" rx="3" ry="3" style="stroke:#038048;stroke-width:1;"/><text fill="#000000" font-family="sans-serif" font-size="14" lengthAdjust="spacing" textLength="215.8994" x="709.97" y="521.3248">addPlayer(player: Player): Status</text><ellipse cx="700.97" cy="534.0221" fill="#84BE84" rx="3" ry="3" style="stroke:#038048;stroke-width:1;"/><text fill="#000000" font-family="sans-serif" font-size="14" lengthAdjust="spacing" textLength="153.6445" x="709.97" y="537.8131">allPlayersJoined(): bool</text><ellipse cx="700.97" cy="550.5104" fill="#84BE84" rx="3" ry="3" style="stroke:#038048;stroke-width:1;"/><text fill="#000000" font-family="sans-serif" font-size="14" lengthAdjust="spacing" textLength="136.5479" x="709.97" y="554.3014">advanceGameState()</text><ellipse cx="700.97" cy="566.9987" fill="#84BE84" rx="3" ry="3" style="stroke:#038048;stroke-width:1;"/><text fill="#000000" font-family="sans-serif" font-size="14" lengthAdjust="spacing" textLength="129.5752" x="709.97" y="570.7897">isGameOver(): bool</text><ellipse cx="700.97" cy="583.487" fill="#84BE84" rx="3" ry="3" style="stroke:#038048;stroke-width:1;"/><text fill="#000000" font-family="sans-serif" font-size="14" lengthAdjust="spacing" textLength="318.0693" x="709.97" y="587.278">getGameOutcome(): optional&lt;GameOutcome&gt;</text><ellipse cx="700.97" cy="599.9752" fill="#84BE84" rx="3" ry="3" style="stroke:#038048;stroke-width:1;"/><text fill="#000000" font-family="sans-serif" font-size="14" lengthAdjust="spacing" textLength="209.3779" x="709.97" y="603.7662">getAllPlayers(): vector&lt;Player&gt;</text><ellipse cx="700.97" cy="616.4635" fill="#84BE84" rx="3" ry="3" style="stroke:#038048;stroke-width:1;"/><text fill="#000000" font-family="sans-serif" font-size="14" lengthAdjust="spacing" textLength="302.251" x="709.97" y="620.2545">getCurrentRoundManager(): RoundManager*</text></g><!--class ServerNetwork--><g class="entity" data-entity="ServerNetwork" data-source-line="116" data-uid="ent0020" id="entity_ServerNetwork"><rect fill="#CBE3D1" height="245.8594" rx="2.5" ry="2.5" style="stroke:#181818;stroke-width:0.5;" width="545.8867" x="320.06" y="42"/><ellipse cx="539.4936" cy="58" fill="#ADD1B2" rx="11" ry="11" style="stroke:#181818;stroke-width:1;"/><path d="M541.9667,64.1431 Q541.3857,64.4419 540.7465,64.5913 Q540.1074,64.7407 539.4018,64.7407 Q536.895,64.7407 535.5751,63.0889 Q534.2553,61.437 534.2553,58.3159 Q534.2553,55.1865 535.5751,53.5347 Q536.895,51.8828 539.4018,51.8828 Q540.1074,51.8828 540.7548,52.0322 Q541.4023,52.1816 541.9667,52.4805 L541.9667,55.2031 Q541.3359,54.6221 540.7424,54.3523 Q540.1489,54.0825 539.518,54.0825 Q538.1733,54.0825 537.4885,55.1492 Q536.8037,56.2158 536.8037,58.3159 Q536.8037,60.4077 537.4885,61.4744 Q538.1733,62.541 539.518,62.541 Q540.1489,62.541 540.7424,62.2712 Q541.3359,62.0015 541.9667,61.4204 Z " fill="#000000"/><text fill="#000000" font-family="sans-serif" font-size="14" lengthAdjust="spacing" textLength="98.5195" x="559.9936" y="63.291">ServerNetwork</text><line style="stroke:#181818;stroke-width:0.5;" x1="321.06" x2="864.9467" y1="74" y2="74"/><rect fill="none" height="6" style="stroke:#C82930;stroke-width:1;" width="6" x="328.06" y="84.7441"/><text fill="#000000" font-family="sans-serif" font-size="14" lengthAdjust="spacing" textLength="156.0645" x="340.06" y="91.5352">ioContext: io_context&amp;</text><rect fill="none" height="6" style="stroke:#C82930;stroke-width:1;" width="6" x="328.06" y="101.2324"/><text fill="#000000" font-family="sans-serif" font-size="14" lengthAdjust="spacing" textLength="177.1533" x="340.06" y="108.0234">acceptor: ip::tcp::acceptor</text><rect fill="none" height="6" style="stroke:#C82930;stroke-width:1;" width="6" x="328.06" y="117.7207"/><text fill="#000000" font-family="sans-serif" font-size="14" lengthAdjust="spacing" textLength="236.4893" x="340.06" y="124.5117">sessions: map&lt;string, SessionPtr&gt;</text><rect fill="none" height="6" style="stroke:#C82930;stroke-width:1;" width="6" x="328.06" y="134.209"/><text fill="#000000" font-family="sans-serif" font-size="14" lengthAdjust="spacing" textLength="211.6064" x="340.06" y="141">gameManager: GameManager&amp;</text><line style="stroke:#181818;stroke-width:1;" x1="321.06" x2="864.9467" y1="147.9531" y2="147.9531"/><ellipse cx="331.06" cy="161.6973" fill="#84BE84" rx="3" ry="3" style="stroke:#038048;stroke-width:1;"/><text fill="#000000" font-family="sans-serif" font-size="14" lengthAdjust="spacing" textLength="86.0234" x="340.06" y="165.4883">startAccept()</text><ellipse cx="331.06" cy="178.1855" fill="#84BE84" rx="3" ry="3" style="stroke:#038048;stroke-width:1;"/><text fill="#000000" font-family="sans-serif" font-size="14" lengthAdjust="spacing" textLength="398.6855" x="340.06" y="181.9766">deliverToOne(playerName: string, message: vector&lt;char&gt;)</text><ellipse cx="331.06" cy="194.6738" fill="#84BE84" rx="3" ry="3" style="stroke:#038048;stroke-width:1;"/><text fill="#000000" font-family="sans-serif" font-size="14" lengthAdjust="spacing" textLength="251.4121" x="340.06" y="198.4648">deliverToAll(message: vector&lt;char&gt;)</text><ellipse cx="331.06" cy="211.1621" fill="#84BE84" rx="3" ry="3" style="stroke:#038048;stroke-width:1;"/><text fill="#000000" font-family="sans-serif" font-size="14" lengthAdjust="spacing" textLength="291.5527" x="340.06" y="214.9531">handleClientDrawDeck(playerName: string)</text><ellipse cx="331.06" cy="227.6504" fill="#84BE84" rx="3" ry="3" style="stroke:#038048;stroke-width:1;"/><text fill="#000000" font-family="sans-serif" font-size="14" lengthAdjust="spacing" textLength="330.4902" x="340.06" y="231.4414">handleClientTakeDiscardPile(playerName: string)</text><ellipse cx="331.06" cy="244.1387" fill="#84BE84" rx="3" ry="3" style="stroke:#038048;stroke-width:1;"/><text fill="#000000" font-family="sans-serif" font-size="14" lengthAdjust="spacing" textLength="519.8867" x="340.06" y="247.9297">handleClientMeld(playerName: string, meldRequests: vector&lt;MeldRequest&gt;)</text><ellipse cx="331.06" cy="260.627" fill="#84BE84" rx="3" ry="3" style="stroke:#038048;stroke-width:1;"/><text fill="#000000" font-family="sans-serif" font-size="14" lengthAdjust="spacing" textLength="421.9756" x="340.06" y="264.418">handleClientDiscard(playerName: string, cardToDiscard: Card)</text><ellipse cx="331.06" cy="277.1152" fill="#84BE84" rx="3" ry="3" style="stroke:#038048;stroke-width:1;"/><text fill="#000000" font-family="sans-serif" font-size="14" lengthAdjust="spacing" textLength="265.8428" x="340.06" y="280.9063">handleClientRevert(playerName: string)</text></g><!--reverse link TurnManager to MeldCommitment--><g class="link" data-entity-1="TurnManager" data-entity-2="MeldCommitment" data-source-line="54" data-uid="lnk8" id="link_TurnManager_MeldCommitment"><path codeLine="54" d="M563.5759,1252.3471 C562.6359,1295.0471 561.83,1331.23 561.06,1366.01" fill="none" id="TurnManager-backto-MeldCommitment" style="stroke:#181818;stroke-width:1;"/><polygon fill="#181818" points="563.84,1240.35,559.7089,1246.2605,563.5759,1252.3471,567.707,1246.4366,563.84,1240.35" style="stroke:#181818;stroke-width:1;"/></g><!--link MeldCommitment to MeldCommitmentType--><g class="link" data-entity-1="MeldCommitment" data-entity-2="MeldCommitmentType" data-source-line="56" data-uid="lnk9" id="link_MeldCommitment_MeldCommitmentType"><path codeLine="56" d="M560,1464.25 C560,1497.85 560,1536.19 560,1567.85" fill="none" id="MeldCommitment-to-MeldCommitmentType" style="stroke:#181818;stroke-width:1;stroke-dasharray:7.0,7.0;"/><polygon fill="#181818" points="560,1573.85,564,1564.85,560,1568.85,556,1564.85,560,1573.85" style="stroke:#181818;stroke-width:1;"/></g><!--link TurnManager to ServerDeck--><g class="link" data-entity-1="TurnManager" data-entity-2="ServerDeck" data-source-line="58" data-uid="lnk10" id="link_TurnManager_ServerDeck"><path codeLine="58" d="M438.34,1240.35 C402.26,1267.93 367.9568,1294.1562 332.5568,1321.2162" fill="none" id="TurnManager-to-ServerDeck" style="stroke:#181818;stroke-width:1;"/><polygon fill="#181818" points="327.79,1324.86,337.3695,1322.5722,331.7624,1321.8235,332.5111,1316.2164,327.79,1324.86" style="stroke:#181818;stroke-width:1;"/><text fill="#000000" font-family="sans-serif" font-size="13" lengthAdjust="spacing" textLength="28.5645" x="400.14" y="1283.5184">uses</text></g><!--link TurnManager to RuleEngine--><g class="link" data-entity-1="TurnManager" data-entity-2="RuleEngine" data-source-line="60" data-uid="lnk11" id="link_TurnManager_RuleEngine"><path codeLine="60" d="M713.8,1240.35 C751.31,1265.12 786.6132,1288.4237 824.1232,1313.1937" fill="none" id="TurnManager-to-RuleEngine" style="stroke:#181818;stroke-width:1;stroke-dasharray:7.0,7.0;"/><polygon fill="#181818" points="829.13,1316.5,823.8239,1308.2027,824.9576,1313.7448,819.4155,1314.8784,829.13,1316.5" style="stroke:#181818;stroke-width:1;"/><text fill="#000000" font-family="sans-serif" font-size="13" lengthAdjust="spacing" textLength="28.5645" x="784.82" y="1283.5184">uses</text></g><!--reverse link RoundManager to TurnManager--><g class="link" data-entity-1="RoundManager" data-entity-2="TurnManager" data-source-line="79" data-uid="lnk13" id="link_RoundManager_TurnManager"><path codeLine="79" d="M597.4373,978.5709 C592.4673,1004.2209 589.61,1018.94 584.89,1043.28" fill="none" id="RoundManager-backto-TurnManager" style="stroke:#181818;stroke-width:1;"/><polygon fill="#181818" points="599.72,966.79,594.6517,971.9195,597.4373,978.5709,602.5056,973.4413,599.72,966.79" style="stroke:#181818;stroke-width:1;"/><text fill="#000000" font-family="sans-serif" font-size="13" lengthAdjust="spacing" textLength="56.5386" x="594.73" y="1010.1184">manages</text></g><!--reverse link RoundManager to ServerDeck--><g class="link" data-entity-1="RoundManager" data-entity-2="ServerDeck" data-source-line="81" data-uid="lnk14" id="link_RoundManager_ServerDeck"><path codeLine="81" d="M336.7893,947.7962 C294.9693,975.0762 266.94,1002.22 240,1043.55 C185.56,1127.09 186.27,1244.77 195.39,1324.96" fill="none" id="RoundManager-backto-ServerDeck" style="stroke:#181818;stroke-width:1;"/><polygon fill="#181818" points="346.84,941.24,339.6293,941.1679,336.7893,947.7962,344.0001,947.8683,346.84,941.24" style="stroke:#181818;stroke-width:1;"/><text fill="#000000" font-family="sans-serif" font-size="13" lengthAdjust="spacing" textLength="56.5386" x="241" y="1146.8184">manages</text></g><!--link RoundManager to RuleEngine--><g class="link" data-entity-1="RoundManager" data-entity-2="RuleEngine" data-source-line="83" data-uid="lnk15" id="link_RoundManager_RuleEngine"><path codeLine="83" d="M773.03,967.02 C795.3,991.01 816.6,1016.93 834,1043.55 C889.66,1128.69 926.9489,1232.9962 950.0089,1310.9962" fill="none" id="RoundManager-to-RuleEngine" style="stroke:#181818;stroke-width:1;stroke-dasharray:7.0,7.0;"/><polygon fill="#181818" points="951.71,1316.75,952.9943,1306.9852,950.2924,1311.9552,945.3225,1309.2533,951.71,1316.75" style="stroke:#181818;stroke-width:1;"/><text fill="#000000" font-family="sans-serif" font-size="13" lengthAdjust="spacing" textLength="28.5645" x="927.07" y="1146.8184">uses</text></g><!--reverse link GameManager to RoundManager--><g class="link" data-entity-1="GameManager" data-entity-2="RoundManager" data-source-line="112" data-uid="lnk18" id="link_GameManager_RoundManager"><path codeLine="112" d="M763.4703,637.2781 C745.8803,662.3081 734.37,678.71 716.78,703.74" fill="none" id="GameManager-backto-RoundManager" style="stroke:#181818;stroke-width:1;"/><polygon fill="#181818" points="770.37,627.46,763.6475,630.0691,763.4703,637.2781,770.1928,634.6689,770.37,627.46" style="stroke:#181818;stroke-width:1;"/><text fill="#000000" font-family="sans-serif" font-size="13" lengthAdjust="spacing" textLength="56.5386" x="744.5" y="670.7784">manages</text></g><!--link GameManager to RuleEngine--><g class="link" data-entity-1="GameManager" data-entity-2="RuleEngine" data-source-line="114" data-uid="lnk19" id="link_GameManager_RuleEngine"><path codeLine="114" d="M902.4,627.53 C909.3,652.8 915.89,679.2 921,704.21 C965.1,919.82 974.8673,1172.8206 976.7673,1310.6406" fill="none" id="GameManager-to-RuleEngine" style="stroke:#181818;stroke-width:1;stroke-dasharray:7.0,7.0;"/><polygon fill="#181818" points="976.85,1316.64,980.7256,1307.5857,976.7811,1311.6405,972.7263,1307.696,976.85,1316.64" style="stroke:#181818;stroke-width:1;"/><text fill="#000000" font-family="sans-serif" font-size="13" lengthAdjust="spacing" textLength="28.5645" x="963.32" y="1010.1184">uses</text></g><!--reverse link ServerNetwork to Session--><g class="link" data-entity-1="ServerNetwork" data-entity-2="Session" data-source-line="132" data-uid="lnk21" id="link_ServerNetwork_Session"><path codeLine="132" d="M470.0493,298.0524 C463.8393,307.7724 464.7,307.67 460,317.86 C445.08,350.18 438.31,389.03 435.38,422.11" fill="none" id="ServerNetwork-backto-Session" style="stroke:#181818;stroke-width:1;"/><polygon fill="#181818" points="476.51,287.94,469.9089,290.8426,470.0493,298.0524,476.6504,295.1497,476.51,287.94" style="stroke:#181818;stroke-width:1;"/><text fill="#000000" font-family="sans-serif" font-size="13" lengthAdjust="spacing" textLength="56.5386" x="461" y="331.4284">manages</text></g><!--link Session to ServerNetwork--><g class="link" data-entity-1="Session" data-entity-2="ServerNetwork" data-source-line="134" data-uid="lnk22" id="link_Session_ServerNetwork"><path codeLine="134" d="M476.16,422.11 C491.25,395.04 507.99,363.86 522,334.86 C529.27,319.82 534.1311,309.3452 541.1011,293.4452" fill="none" id="Session-to-ServerNetwork" style="stroke:#181818;stroke-width:1;"/><polygon fill="#181818" points="543.51,287.95,536.2332,294.5869,541.5026,292.5293,543.5601,297.7987,543.51,287.95" style="stroke:#181818;stroke-width:1;"/><text fill="#000000" font-family="sans-serif" font-size="13" lengthAdjust="spacing" textLength="28.5645" x="529.37" y="331.4284">uses</text></g><!--link ServerNetwork to GameManager--><g class="link" data-entity-1="ServerNetwork" data-entity-2="GameManager" data-source-line="136" data-uid="lnk23" id="link_ServerNetwork_GameManager"><path codeLine="136" d="M692.78,288.01 C713.19,312.98 730.9527,334.7045 751.5927,359.9545" fill="none" id="ServerNetwork-to-GameManager" style="stroke:#181818;stroke-width:1;"/><polygon fill="#181818" points="755.39,364.6,752.791,355.1003,752.2256,360.7288,746.597,360.1634,755.39,364.6" style="stroke:#181818;stroke-width:1;"/><text fill="#000000" font-family="sans-serif" font-size="13" lengthAdjust="spacing" textLength="28.5645" x="728.5" y="331.4284">uses</text></g><!--link ServerNetwork to RoundManager--><g class="link" data-entity-1="ServerNetwork" data-entity-2="RoundManager" data-source-line="138" data-uid="lnk24" id="link_ServerNetwork_RoundManager"><path codeLine="138" d="M598.85,288.14 C604.49,405.88 612.6929,577.3869 618.4629,697.8469" fill="none" id="ServerNetwork-to-RoundManager" style="stroke:#181818;stroke-width:1;stroke-dasharray:7.0,7.0;"/><polygon fill="#181818" points="618.75,703.84,622.3148,694.6589,618.5108,698.8457,614.324,695.0417,618.75,703.84" style="stroke:#181818;stroke-width:1;"/><text fill="#000000" font-family="sans-serif" font-size="13" lengthAdjust="spacing" textLength="28.5645" x="615.75" y="501.0984">uses</text></g><!--SRC=[hLTPR-Cs47xFho1s0JU7RM3ReWz2O22nasmBP6FOVb-mrC1XBOagIUNOOlzxXuSbKeVj7dwGfU5mECVtpKXgnukIIfgJah8TtS9QlsT0931zTkP5vCCQv0l83-IlCu8_bb6bY9CjWEt8n_kV5x_SVVBBvZSXEUM5MKp82zeIydfEPJeB55Ak68gMF8CXdKbzUqLIIL_Dylb5GaIfkIXerjA_8blG6r4kdEM3clvqQz7S9CJSNWGQckvWqVXehC5RYNv2UXswEoPAIrviG-iIC3LwqxOGQ71rByKtA8pPtuN8xDBtio2_cqeMZxJ0_ClU19SPVGUPaANzlmnMdcc1yNp6QoZLGFELg8fqhQd6b6-Yvr1JrPLDWYfVzjV579R10gjZb4munl4RPlA-0bLbkgEywMRsw9v7o59rdkDr1NzMeBIgGVFO26UdcDh3mrmsmZ_v-f-mVMLhE-Yqh-4FcAK9MLKPt1LRNW21eigDpAxQ1-FtNEGvrpaKUlDUGb3VNmkkEStuDwX5DocwU_V6bKQqTV4Ic-k1ZAC77cDyxnuUwwreOOjf_kELEMB6Xg_GkQ-wwqWGT9yJZ1Rx2ZW8VwxXEXg7l7Gb6OK4SHPKjTrYiKq8jeWgxXyXKOtEsgbZcVgeofuHjWyqXwTACv73-NGwHGk19FRzGQ01NF5wBTTUi6Gfqcc9MbhT2-dhwE3hjZHTHF1qJ51nrcF19Dxige50JGHBAKgXQDQnXLRwejjRkysmbM-U9S2mJM_Ij8DA7V08SSZxVEbijAb5igDF8TrRdiT8Z8Fmk0fRuINIAjxYT5hmdqvdVHZlc9jCPk4aIqYbG7NLZBa0rw6Q1xtff8VQTNzJRVNdJxszkQNqup4bLabf0cxyJy9W1XgvqbHgQwyrgApi2Hq-x-BTz0DtcXj3HiNTZGPdXE_L_sPK_9EjbdBx3V_duDZR_4_puxH86CrObM5rrqn8K4Oxf-MreyYOMEcj1BfBnMiHKIR2e-5CY6PZnTof0Ts84CEgHqcn1gKmBF9nVdltqwB51y5se1F2ooJH32zEuEMTzvmls8yJtnk2nJ-mpqBQWcKNrX6YKyYuGNEEtc4SDHpOCvMpYnZSo_fmE_6QuwE9PuR58UxJB7E66kovvrcR_uxLRS9tf9xXjXf9L9HUSWV- -Pchx1JVp_0WQ9kk1njl8wHfwkaTltJsDFqcrDziQRezWwOlj61Wph2DApo8ApjtUtiDLYCSq-7BVI2VHHjkQc-C_a3ghvec5cRIllrqCklh7bRSC2RYHOipeUu9b37K-mBwLSXTBt6uc8j2mvlXZlZAtFqeH1jZK6AW0RVsecWUMMwgLaTnqgMEeBbj8aZ2S4O7A7TZZ-mZtaOy5N3UfVMO76LaRG4BUvo_hj_ECuwLhJzGkkSERMb_ffo-qxwPzWTuR0mDkH-zCST6- -RGW1d_xJ8KYGTtZ44t45mZRo5xBsvUelQRGc37AqOtPCImfkLAp2kh-lrl]--></g></svg>